<svg xmlns="http://www.w3.org/2000/svg" xmlns:v="https://svgstorm.com"
viewBox = "0 0 303 319"
width="303"
height="319">
<g fill="None" fill-opacity="0.0" stroke="#000000" stroke-opacity="0.00" stroke-width="0.3"><path d="
M 0.00 319.00 
L 303.00 319.00
L 303.00 0.00
L 0.00 0.00
L 0.00 319.00
M 29.00 237.00 
C 25.81 235.18 22.42 234.50 22.00 230.00
C 17.46 225.64 22.36 213.68 21.00 207.00 C 19.64 200.32 21.55 190.49 21.00 183.00 C 20.45 175.51 21.18 165.79 21.00 158.00 C 20.82 150.21 20.89 141.84 21.00 134.00 C 21.11 126.16 20.54 117.79 21.00 110.00 C 21.46 102.21 19.47 92.85 22.00 86.00
C 25.99 75.19 42.73 72.34 51.70 65.70 C 60.66 59.05 73.21 53.19 83.23 47.23 C 93.25 41.27 104.44 34.29 115.08 29.08 C 125.72 23.86 135.34 14.48 146.70 10.70 C 158.06 6.91 170.06 21.12 180.25 25.75 C 190.43 30.39 202.07 37.74 212.23 43.77 C 222.39 49.80 233.80 55.00 243.75 62.25 C 253.69 69.50 266.31 71.22 275.70 80.31 C 285.08 89.39 278.80 111.95 280.00 126.00 C 281.20 140.05 279.81 162.23 280.00 177.00 C 280.19 191.77 280.75 212.89 280.00 227.00 C 279.25 241.11 261.62 241.93 252.30 249.30 C 242.98 256.67 230.86 261.12 220.77 267.77 C 210.68 274.42 199.38 279.56 188.92 285.92 C 178.45 292.28 168.21 298.32 157.30 304.30 C 146.39 310.29 134.68 297.63 124.30 292.70 C 113.93 287.76 103.29 279.78 92.77 274.23 C 82.25 268.68 71.59 261.78 60.92 256.08 C 50.26 250.37 39.37 242.90 29.00 237.00 Z"/>
</g>
<g fill="None" fill-opacity="0.0" stroke="#FF9414" stroke-opacity="0.97" stroke-width="0.3"><path d="
M 22.00 86.00 
C 18.67 101.05 23.42 117.48 22.00 133.00 C 20.58 148.52 22.53 165.25 22.00 181.00 C 21.47 196.75 22.00 213.19 22.00 229.00
C 24.51 231.20 26.22 234.72 29.00 237.00
C 39.37 242.90 50.26 250.37 60.92 256.08 C 71.59 261.78 82.25 268.68 92.77 274.23 C 103.29 279.78 113.93 287.76 124.30 292.70 C 134.68 297.63 146.39 310.29 157.30 304.30 C 168.21 298.32 178.45 292.28 188.92 285.92 C 199.38 279.56 210.68 274.42 220.77 267.77 C 230.86 261.12 242.98 256.67 252.30 249.30 C 261.62 241.93 279.25 241.11 280.00 227.00 C 280.75 212.89 280.19 191.77 280.00 177.00 C 279.81 162.23 281.20 140.05 280.00 126.00 C 278.80 111.95 285.08 89.39 275.70 80.31 C 266.31 71.22 253.69 69.50 243.75 62.25 C 233.80 55.00 222.39 49.80 212.23 43.77 C 202.07 37.74 190.43 30.39 180.25 25.75 C 170.06 21.12 158.06 6.91 146.70 10.70 C 135.34 14.48 125.72 23.86 115.08 29.08 C 104.44 34.29 93.25 41.27 83.23 47.23 C 73.21 53.19 60.66 59.05 51.70 65.70 C 42.73 72.34 25.99 75.19 22.00 86.00
M 252.00 99.00 
C 256.82 105.55 251.78 119.39 253.00 128.00 C 254.22 136.61 252.93 150.07 253.00 159.00 C 253.07 167.93 254.15 180.59 253.00 189.00 C 251.85 197.41 256.92 212.47 251.00 218.00
C 245.15 223.46 235.46 224.66 228.92 229.92 C 222.39 235.19 213.79 237.86 206.77 242.77 C 199.76 247.68 191.90 250.49 184.77 255.77 C 177.64 261.05 169.52 262.27 162.31 268.31 C 155.09 274.34 147.27 275.29 139.92 269.08 C 132.57 262.86 125.07 261.37 117.77 256.23 C 110.47 251.09 102.81 248.23 95.77 243.23 C 88.73 238.23 79.83 236.04 73.31 230.69 C 66.78 225.35 56.72 223.61 51.00 218.00
C 45.22 212.33 49.97 198.55 49.00 190.00 C 48.03 181.45 48.90 167.99 49.00 159.00 C 49.10 150.01 47.64 137.65 49.00 129.00 C 50.36 120.35 45.17 105.69 50.00 99.00
C 54.03 93.41 64.64 92.69 70.08 88.08 C 75.51 83.46 83.94 79.87 90.23 76.23 C 96.52 72.59 103.69 67.32 110.25 64.25 C 116.80 61.17 124.19 54.94 130.70 52.70 C 137.20 50.45 144.56 40.90 151.08 41.08 C 157.59 41.25 164.27 49.81 170.70 52.30 C 177.12 54.80 184.62 60.64 191.08 63.92 C 197.53 67.21 204.94 72.10 211.23 75.77 C 217.52 79.44 225.73 83.27 231.25 87.75 C 236.77 92.24 248.04 93.63 252.00 99.00 Z"/>
</g>
<g fill="None" fill-opacity="0.0" stroke="#000000" stroke-opacity="0.00" stroke-width="0.3"><path d="
M 50.00 99.00 
C 46.87 105.33 51.32 115.82 50.00 123.00 C 48.68 130.18 50.40 139.52 50.00 147.00 C 49.60 154.48 49.74 163.56 50.00 171.00 C 50.26 178.44 48.92 187.97 50.00 195.00 C 51.08 202.03 46.89 212.36 51.00 218.00
C 56.72 223.61 66.78 225.35 73.31 230.69 C 79.83 236.04 88.73 238.23 95.77 243.23 C 102.81 248.23 110.47 251.09 117.77 256.23 C 125.07 261.37 132.57 262.86 139.92 269.08 C 147.27 275.29 155.09 274.34 162.31 268.31 C 169.52 262.27 177.64 261.05 184.77 255.77 C 191.90 250.49 199.76 247.68 206.77 242.77 C 213.79 237.86 222.39 235.19 228.92 229.92 C 235.46 224.66 245.15 223.46 251.00 218.00
C 256.26 211.14 250.28 197.71 252.00 189.00 C 253.72 180.29 251.20 168.40 252.00 159.00 C 252.80 149.60 251.58 138.69 252.00 129.00 C 252.42 119.31 251.69 108.77 252.00 99.00
C 248.04 93.63 236.77 92.24 231.25 87.75 C 225.73 83.27 217.52 79.44 211.23 75.77 C 204.94 72.10 197.53 67.21 191.08 63.92 C 184.62 60.64 177.12 54.80 170.70 52.30 C 164.27 49.81 157.59 41.25 151.08 41.08 C 144.56 40.90 137.20 50.45 130.70 52.70 C 124.19 54.94 116.80 61.17 110.25 64.25 C 103.69 67.32 96.52 72.59 90.23 76.23 C 83.94 79.87 75.51 83.46 70.08 88.08 C 64.64 92.69 54.03 93.41 50.00 99.00
M 79.00 206.00 
C 70.27 200.71 72.64 189.27 73.00 179.00 C 73.36 168.73 71.79 156.06 73.00 146.00 C 74.21 135.94 69.68 122.54 74.00 114.00
C 79.19 103.73 94.93 103.43 103.25 95.25 C 111.56 87.06 124.80 86.83 134.08 78.08 C 143.35 69.32 156.27 68.36 166.08 76.92 C 175.89 85.48 186.55 87.23 196.70 94.31 C 206.84 101.38 217.27 106.37 228.00 112.00
C 227.26 117.62 219.38 116.70 217.00 121.00
C 206.81 116.25 198.50 111.49 188.77 105.23 C 179.04 98.97 170.59 96.87 160.77 89.23 C 150.95 81.59 142.51 88.07 132.30 94.30 C 122.09 100.53 115.87 104.63 104.31 110.31 C 92.74 115.98 84.62 121.10 86.00 136.00 C 87.38 150.90 87.30 165.12 86.00 180.00 C 84.70 194.88 92.38 200.37 104.23 205.77 C 116.08 211.17 121.22 216.46 132.08 221.92 C 142.95 227.38 155.13 232.24 151.00 247.00
C 126.44 235.16 102.40 220.09 79.00 206.00
M 227.00 210.00 
C 223.18 215.91 212.56 216.55 207.31 221.31 C 202.05 226.06 193.74 228.63 187.77 232.77 C 181.80 236.91 174.26 240.44 168.00 244.00
C 166.60 244.80 164.87 246.75 163.00 247.00
C 163.17 246.63 159.23 237.57 161.00 232.00 C 162.77 226.43 159.27 220.06 161.00 213.00 C 162.73 205.94 158.17 203.02 161.00 194.00 C 163.83 184.98 156.07 164.93 163.00 158.00
C 168.01 152.99 178.03 150.69 184.08 147.08 C 190.12 143.47 198.21 137.91 204.70 135.70 C 211.18 133.49 219.38 124.60 226.00 125.00
C 229.71 125.22 228.09 144.38 228.00 151.00 C 227.91 157.62 229.01 173.41 228.00 181.00 C 226.99 188.59 231.06 203.71 227.00 210.00 Z"/>
</g>
<g fill="None" fill-opacity="0.0" stroke="#FF971E" stroke-opacity="0.93" stroke-width="0.3"><path d="
M 74.00 114.00 
C 70.91 123.40 75.26 136.08 74.00 146.00 C 72.74 155.92 74.27 168.06 74.00 178.00 C 73.73 187.94 71.46 199.43 79.00 206.00
C 102.40 220.09 126.44 235.16 151.00 247.00
C 155.13 232.24 142.95 227.38 132.08 221.92 C 121.22 216.46 116.08 211.17 104.23 205.77 C 92.38 200.37 84.70 194.88 86.00 180.00 C 87.30 165.12 87.38 150.90 86.00 136.00 C 84.62 121.10 92.74 115.98 104.31 110.31 C 115.87 104.63 122.09 100.53 132.30 94.30 C 142.51 88.07 150.95 81.59 160.77 89.23 C 170.59 96.87 179.04 98.97 188.77 105.23 C 198.50 111.49 206.81 116.25 217.00 121.00
C 219.38 116.70 227.26 117.62 228.00 112.00
C 217.27 106.37 206.84 101.38 196.70 94.31 C 186.55 87.23 175.89 85.48 166.08 76.92 C 156.27 68.36 143.35 69.32 134.08 78.08 C 124.80 86.83 111.56 87.06 103.25 95.25 C 94.93 103.43 79.19 103.73 74.00 114.00 Z"/>
</g>
<g fill="None" fill-opacity="0.0" stroke="#FFC888" stroke-opacity="0.34" stroke-width="0.3"><path d="
M 22.00 230.00 
C 21.95 229.50 22.00 229.00 22.00 229.00
C 22.00 213.19 21.47 196.75 22.00 181.00 C 22.53 165.25 20.58 148.52 22.00 133.00 C 23.42 117.48 18.67 101.05 22.00 86.00
C 19.47 92.85 21.46 102.21 21.00 110.00 C 20.54 117.79 21.11 126.16 21.00 134.00 C 20.89 141.84 20.82 150.21 21.00 158.00 C 21.18 165.79 20.45 175.51 21.00 183.00 C 21.55 190.49 19.64 200.32 21.00 207.00 C 22.36 213.68 17.46 225.64 22.00 230.00 Z"/>
</g>
<g fill="None" fill-opacity="0.0" stroke="#FFE3BE" stroke-opacity="0.11" stroke-width="0.3"><path d="
M 51.00 218.00 
C 46.89 212.36 51.08 202.03 50.00 195.00 C 48.92 187.97 50.26 178.44 50.00 171.00 C 49.74 163.56 49.60 154.48 50.00 147.00 C 50.40 139.52 48.68 130.18 50.00 123.00 C 51.32 115.82 46.87 105.33 50.00 99.00
C 45.17 105.69 50.36 120.35 49.00 129.00 C 47.64 137.65 49.10 150.01 49.00 159.00 C 48.90 167.99 48.03 181.45 49.00 190.00 C 49.97 198.55 45.22 212.33 51.00 218.00 Z"/>
</g>
<g fill="None" fill-opacity="0.0" stroke="#FFC787" stroke-opacity="0.35" stroke-width="0.3"><path d="
M 251.00 218.00 
C 256.92 212.47 251.85 197.41 253.00 189.00 C 254.15 180.59 253.07 167.93 253.00 159.00 C 252.93 150.07 254.22 136.61 253.00 128.00 C 251.78 119.39 256.82 105.55 252.00 99.00
C 251.69 108.77 252.42 119.31 252.00 129.00 C 251.58 138.69 252.80 149.60 252.00 159.00 C 251.20 168.40 253.72 180.29 252.00 189.00 C 250.28 197.71 256.26 211.14 251.00 218.00 Z"/>
</g>
<g fill="None" fill-opacity="0.0" stroke="#FFB04F" stroke-opacity="0.57" stroke-width="0.3"><path d="
M 79.00 206.00 
C 71.46 199.43 73.73 187.94 74.00 178.00 C 74.27 168.06 72.74 155.92 74.00 146.00 C 75.26 136.08 70.91 123.40 74.00 114.00
C 69.68 122.54 74.21 135.94 73.00 146.00 C 71.79 156.06 73.36 168.73 73.00 179.00 C 72.64 189.27 70.27 200.71 79.00 206.00 Z"/>
</g>
<g fill="None" fill-opacity="0.0" stroke="#FFBE6B" stroke-opacity="0.45" stroke-width="0.3"><path d="
M 226.00 125.00 
C 229.95 127.42 226.14 139.70 227.00 145.00 C 227.86 150.30 227.01 160.91 227.00 167.00 C 226.99 173.09 228.00 181.78 227.00 188.00 C 226.00 194.22 229.50 204.27 227.00 210.00
C 231.06 203.71 226.99 188.59 228.00 181.00 C 229.01 173.41 227.91 157.62 228.00 151.00 C 228.09 144.38 229.71 125.22 226.00 125.00 Z"/>
</g>
<g fill="None" fill-opacity="0.0" stroke="#FF930F" stroke-opacity="0.98" stroke-width="0.3"><path d="
M 163.00 158.00 
C 158.14 164.80 163.18 177.39 162.00 186.00 C 160.82 194.61 161.95 206.82 162.00 216.00 C 162.05 225.18 160.68 236.80 162.00 246.00
C 163.53 244.27 167.21 244.27 168.00 244.00
C 174.26 240.44 181.80 236.91 187.77 232.77 C 193.74 228.63 202.05 226.06 207.31 221.31 C 212.56 216.55 223.18 215.91 227.00 210.00
C 229.50 204.27 226.00 194.22 227.00 188.00 C 228.00 181.78 226.99 173.09 227.00 167.00 C 227.01 160.91 227.86 150.30 227.00 145.00 C 226.14 139.70 229.95 127.42 226.00 125.00
C 219.38 124.60 211.18 133.49 204.70 135.70 C 198.21 137.91 190.12 143.47 184.08 147.08 C 178.03 150.69 168.01 152.99 163.00 158.00 Z"/>
</g>
<g fill="None" fill-opacity="0.0" stroke="#FFC88A" stroke-opacity="0.34" stroke-width="0.3"><path d="
M 163.00 247.00 
C 162.69 247.04 162.05 246.35 162.00 246.00
C 160.68 236.80 162.05 225.18 162.00 216.00 C 161.95 206.82 160.82 194.61 162.00 186.00 C 163.18 177.39 158.14 164.80 163.00 158.00
C 156.07 164.93 163.83 184.98 161.00 194.00 C 158.17 203.02 162.73 205.94 161.00 213.00 C 159.27 220.06 162.77 226.43 161.00 232.00 C 159.23 237.57 163.17 246.63 163.00 247.00 Z"/>
</g>
<g fill="None" fill-opacity="0.0" stroke="#FFA645" stroke-opacity="0.66" stroke-width="0.3"><path d="
M 22.00 230.00 
C 22.42 234.50 25.81 235.18 29.00 237.00
C 26.22 234.72 24.51 231.20 22.00 229.00
C 22.00 229.00 21.95 229.50 22.00 230.00 Z"/>
</g>
<g fill="None" fill-opacity="0.0" stroke="#FFA746" stroke-opacity="0.65" stroke-width="0.3"><path d="
M 162.00 246.00 
C 162.05 246.35 162.69 247.04 163.00 247.00
C 164.87 246.75 166.60 244.80 168.00 244.00
C 167.21 244.27 163.53 244.27 162.00 246.00 Z"/>
</g>
<g fill="#000000" fill-opacity="0.00" stroke="None">
<path d="
M 0.00 319.00 
L 303.00 319.00
L 303.00 0.00
L 0.00 0.00
L 0.00 319.00
M 29.00 237.00 
C 25.81 235.18 22.42 234.50 22.00 230.00
C 17.46 225.64 22.36 213.68 21.00 207.00 C 19.64 200.32 21.55 190.49 21.00 183.00 C 20.45 175.51 21.18 165.79 21.00 158.00 C 20.82 150.21 20.89 141.84 21.00 134.00 C 21.11 126.16 20.54 117.79 21.00 110.00 C 21.46 102.21 19.47 92.85 22.00 86.00
C 25.99 75.19 42.73 72.34 51.70 65.70 C 60.66 59.05 73.21 53.19 83.23 47.23 C 93.25 41.27 104.44 34.29 115.08 29.08 C 125.72 23.86 135.34 14.48 146.70 10.70 C 158.06 6.91 170.06 21.12 180.25 25.75 C 190.43 30.39 202.07 37.74 212.23 43.77 C 222.39 49.80 233.80 55.00 243.75 62.25 C 253.69 69.50 266.31 71.22 275.70 80.31 C 285.08 89.39 278.80 111.95 280.00 126.00 C 281.20 140.05 279.81 162.23 280.00 177.00 C 280.19 191.77 280.75 212.89 280.00 227.00 C 279.25 241.11 261.62 241.93 252.30 249.30 C 242.98 256.67 230.86 261.12 220.77 267.77 C 210.68 274.42 199.38 279.56 188.92 285.92 C 178.45 292.28 168.21 298.32 157.30 304.30 C 146.39 310.29 134.68 297.63 124.30 292.70 C 113.93 287.76 103.29 279.78 92.77 274.23 C 82.25 268.68 71.59 261.78 60.92 256.08 C 50.26 250.37 39.37 242.90 29.00 237.00 Z"/>
</g>
<g fill="#FF9414" fill-opacity="0.97" stroke="None">
<path d="
M 22.00 86.00 
C 18.67 101.05 23.42 117.48 22.00 133.00 C 20.58 148.52 22.53 165.25 22.00 181.00 C 21.47 196.75 22.00 213.19 22.00 229.00
C 24.51 231.20 26.22 234.72 29.00 237.00
C 39.37 242.90 50.26 250.37 60.92 256.08 C 71.59 261.78 82.25 268.68 92.77 274.23 C 103.29 279.78 113.93 287.76 124.30 292.70 C 134.68 297.63 146.39 310.29 157.30 304.30 C 168.21 298.32 178.45 292.28 188.92 285.92 C 199.38 279.56 210.68 274.42 220.77 267.77 C 230.86 261.12 242.98 256.67 252.30 249.30 C 261.62 241.93 279.25 241.11 280.00 227.00 C 280.75 212.89 280.19 191.77 280.00 177.00 C 279.81 162.23 281.20 140.05 280.00 126.00 C 278.80 111.95 285.08 89.39 275.70 80.31 C 266.31 71.22 253.69 69.50 243.75 62.25 C 233.80 55.00 222.39 49.80 212.23 43.77 C 202.07 37.74 190.43 30.39 180.25 25.75 C 170.06 21.12 158.06 6.91 146.70 10.70 C 135.34 14.48 125.72 23.86 115.08 29.08 C 104.44 34.29 93.25 41.27 83.23 47.23 C 73.21 53.19 60.66 59.05 51.70 65.70 C 42.73 72.34 25.99 75.19 22.00 86.00
M 252.00 99.00 
C 256.82 105.55 251.78 119.39 253.00 128.00 C 254.22 136.61 252.93 150.07 253.00 159.00 C 253.07 167.93 254.15 180.59 253.00 189.00 C 251.85 197.41 256.92 212.47 251.00 218.00
C 245.15 223.46 235.46 224.66 228.92 229.92 C 222.39 235.19 213.79 237.86 206.77 242.77 C 199.76 247.68 191.90 250.49 184.77 255.77 C 177.64 261.05 169.52 262.27 162.31 268.31 C 155.09 274.34 147.27 275.29 139.92 269.08 C 132.57 262.86 125.07 261.37 117.77 256.23 C 110.47 251.09 102.81 248.23 95.77 243.23 C 88.73 238.23 79.83 236.04 73.31 230.69 C 66.78 225.35 56.72 223.61 51.00 218.00
C 45.22 212.33 49.97 198.55 49.00 190.00 C 48.03 181.45 48.90 167.99 49.00 159.00 C 49.10 150.01 47.64 137.65 49.00 129.00 C 50.36 120.35 45.17 105.69 50.00 99.00
C 54.03 93.41 64.64 92.69 70.08 88.08 C 75.51 83.46 83.94 79.87 90.23 76.23 C 96.52 72.59 103.69 67.32 110.25 64.25 C 116.80 61.17 124.19 54.94 130.70 52.70 C 137.20 50.45 144.56 40.90 151.08 41.08 C 157.59 41.25 164.27 49.81 170.70 52.30 C 177.12 54.80 184.62 60.64 191.08 63.92 C 197.53 67.21 204.94 72.10 211.23 75.77 C 217.52 79.44 225.73 83.27 231.25 87.75 C 236.77 92.24 248.04 93.63 252.00 99.00 Z"/>
</g>
<g fill="#000000" fill-opacity="0.00" stroke="None">
<path d="
M 50.00 99.00 
C 46.87 105.33 51.32 115.82 50.00 123.00 C 48.68 130.18 50.40 139.52 50.00 147.00 C 49.60 154.48 49.74 163.56 50.00 171.00 C 50.26 178.44 48.92 187.97 50.00 195.00 C 51.08 202.03 46.89 212.36 51.00 218.00
C 56.72 223.61 66.78 225.35 73.31 230.69 C 79.83 236.04 88.73 238.23 95.77 243.23 C 102.81 248.23 110.47 251.09 117.77 256.23 C 125.07 261.37 132.57 262.86 139.92 269.08 C 147.27 275.29 155.09 274.34 162.31 268.31 C 169.52 262.27 177.64 261.05 184.77 255.77 C 191.90 250.49 199.76 247.68 206.77 242.77 C 213.79 237.86 222.39 235.19 228.92 229.92 C 235.46 224.66 245.15 223.46 251.00 218.00
C 256.26 211.14 250.28 197.71 252.00 189.00 C 253.72 180.29 251.20 168.40 252.00 159.00 C 252.80 149.60 251.58 138.69 252.00 129.00 C 252.42 119.31 251.69 108.77 252.00 99.00
C 248.04 93.63 236.77 92.24 231.25 87.75 C 225.73 83.27 217.52 79.44 211.23 75.77 C 204.94 72.10 197.53 67.21 191.08 63.92 C 184.62 60.64 177.12 54.80 170.70 52.30 C 164.27 49.81 157.59 41.25 151.08 41.08 C 144.56 40.90 137.20 50.45 130.70 52.70 C 124.19 54.94 116.80 61.17 110.25 64.25 C 103.69 67.32 96.52 72.59 90.23 76.23 C 83.94 79.87 75.51 83.46 70.08 88.08 C 64.64 92.69 54.03 93.41 50.00 99.00
M 79.00 206.00 
C 70.27 200.71 72.64 189.27 73.00 179.00 C 73.36 168.73 71.79 156.06 73.00 146.00 C 74.21 135.94 69.68 122.54 74.00 114.00
C 79.19 103.73 94.93 103.43 103.25 95.25 C 111.56 87.06 124.80 86.83 134.08 78.08 C 143.35 69.32 156.27 68.36 166.08 76.92 C 175.89 85.48 186.55 87.23 196.70 94.31 C 206.84 101.38 217.27 106.37 228.00 112.00
C 227.26 117.62 219.38 116.70 217.00 121.00
C 206.81 116.25 198.50 111.49 188.77 105.23 C 179.04 98.97 170.59 96.87 160.77 89.23 C 150.95 81.59 142.51 88.07 132.30 94.30 C 122.09 100.53 115.87 104.63 104.31 110.31 C 92.74 115.98 84.62 121.10 86.00 136.00 C 87.38 150.90 87.30 165.12 86.00 180.00 C 84.70 194.88 92.38 200.37 104.23 205.77 C 116.08 211.17 121.22 216.46 132.08 221.92 C 142.95 227.38 155.13 232.24 151.00 247.00
C 126.44 235.16 102.40 220.09 79.00 206.00
M 227.00 210.00 
C 223.18 215.91 212.56 216.55 207.31 221.31 C 202.05 226.06 193.74 228.63 187.77 232.77 C 181.80 236.91 174.26 240.44 168.00 244.00
C 166.60 244.80 164.87 246.75 163.00 247.00
C 163.17 246.63 159.23 237.57 161.00 232.00 C 162.77 226.43 159.27 220.06 161.00 213.00 C 162.73 205.94 158.17 203.02 161.00 194.00 C 163.83 184.98 156.07 164.93 163.00 158.00
C 168.01 152.99 178.03 150.69 184.08 147.08 C 190.12 143.47 198.21 137.91 204.70 135.70 C 211.18 133.49 219.38 124.60 226.00 125.00
C 229.71 125.22 228.09 144.38 228.00 151.00 C 227.91 157.62 229.01 173.41 228.00 181.00 C 226.99 188.59 231.06 203.71 227.00 210.00 Z"/>
</g>
<g fill="#FF971E" fill-opacity="0.93" stroke="None">
<path d="
M 74.00 114.00 
C 70.91 123.40 75.26 136.08 74.00 146.00 C 72.74 155.92 74.27 168.06 74.00 178.00 C 73.73 187.94 71.46 199.43 79.00 206.00
C 102.40 220.09 126.44 235.16 151.00 247.00
C 155.13 232.24 142.95 227.38 132.08 221.92 C 121.22 216.46 116.08 211.17 104.23 205.77 C 92.38 200.37 84.70 194.88 86.00 180.00 C 87.30 165.12 87.38 150.90 86.00 136.00 C 84.62 121.10 92.74 115.98 104.31 110.31 C 115.87 104.63 122.09 100.53 132.30 94.30 C 142.51 88.07 150.95 81.59 160.77 89.23 C 170.59 96.87 179.04 98.97 188.77 105.23 C 198.50 111.49 206.81 116.25 217.00 121.00
C 219.38 116.70 227.26 117.62 228.00 112.00
C 217.27 106.37 206.84 101.38 196.70 94.31 C 186.55 87.23 175.89 85.48 166.08 76.92 C 156.27 68.36 143.35 69.32 134.08 78.08 C 124.80 86.83 111.56 87.06 103.25 95.25 C 94.93 103.43 79.19 103.73 74.00 114.00 Z"/>
</g>
<g fill="#FFC888" fill-opacity="0.34" stroke="None">
<path d="
M 22.00 230.00 
C 21.95 229.50 22.00 229.00 22.00 229.00
C 22.00 213.19 21.47 196.75 22.00 181.00 C 22.53 165.25 20.58 148.52 22.00 133.00 C 23.42 117.48 18.67 101.05 22.00 86.00
C 19.47 92.85 21.46 102.21 21.00 110.00 C 20.54 117.79 21.11 126.16 21.00 134.00 C 20.89 141.84 20.82 150.21 21.00 158.00 C 21.18 165.79 20.45 175.51 21.00 183.00 C 21.55 190.49 19.64 200.32 21.00 207.00 C 22.36 213.68 17.46 225.64 22.00 230.00 Z"/>
</g>
<g fill="#FFE3BE" fill-opacity="0.11" stroke="None">
<path d="
M 51.00 218.00 
C 46.89 212.36 51.08 202.03 50.00 195.00 C 48.92 187.97 50.26 178.44 50.00 171.00 C 49.74 163.56 49.60 154.48 50.00 147.00 C 50.40 139.52 48.68 130.18 50.00 123.00 C 51.32 115.82 46.87 105.33 50.00 99.00
C 45.17 105.69 50.36 120.35 49.00 129.00 C 47.64 137.65 49.10 150.01 49.00 159.00 C 48.90 167.99 48.03 181.45 49.00 190.00 C 49.97 198.55 45.22 212.33 51.00 218.00 Z"/>
</g>
<g fill="#FFC787" fill-opacity="0.35" stroke="None">
<path d="
M 251.00 218.00 
C 256.92 212.47 251.85 197.41 253.00 189.00 C 254.15 180.59 253.07 167.93 253.00 159.00 C 252.93 150.07 254.22 136.61 253.00 128.00 C 251.78 119.39 256.82 105.55 252.00 99.00
C 251.69 108.77 252.42 119.31 252.00 129.00 C 251.58 138.69 252.80 149.60 252.00 159.00 C 251.20 168.40 253.72 180.29 252.00 189.00 C 250.28 197.71 256.26 211.14 251.00 218.00 Z"/>
</g>
<g fill="#FFB04F" fill-opacity="0.57" stroke="None">
<path d="
M 79.00 206.00 
C 71.46 199.43 73.73 187.94 74.00 178.00 C 74.27 168.06 72.74 155.92 74.00 146.00 C 75.26 136.08 70.91 123.40 74.00 114.00
C 69.68 122.54 74.21 135.94 73.00 146.00 C 71.79 156.06 73.36 168.73 73.00 179.00 C 72.64 189.27 70.27 200.71 79.00 206.00 Z"/>
</g>
<g fill="#FFBE6B" fill-opacity="0.45" stroke="None">
<path d="
M 226.00 125.00 
C 229.95 127.42 226.14 139.70 227.00 145.00 C 227.86 150.30 227.01 160.91 227.00 167.00 C 226.99 173.09 228.00 181.78 227.00 188.00 C 226.00 194.22 229.50 204.27 227.00 210.00
C 231.06 203.71 226.99 188.59 228.00 181.00 C 229.01 173.41 227.91 157.62 228.00 151.00 C 228.09 144.38 229.71 125.22 226.00 125.00 Z"/>
</g>
<g fill="#FF930F" fill-opacity="0.98" stroke="None">
<path d="
M 163.00 158.00 
C 158.14 164.80 163.18 177.39 162.00 186.00 C 160.82 194.61 161.95 206.82 162.00 216.00 C 162.05 225.18 160.68 236.80 162.00 246.00
C 163.53 244.27 167.21 244.27 168.00 244.00
C 174.26 240.44 181.80 236.91 187.77 232.77 C 193.74 228.63 202.05 226.06 207.31 221.31 C 212.56 216.55 223.18 215.91 227.00 210.00
C 229.50 204.27 226.00 194.22 227.00 188.00 C 228.00 181.78 226.99 173.09 227.00 167.00 C 227.01 160.91 227.86 150.30 227.00 145.00 C 226.14 139.70 229.95 127.42 226.00 125.00
C 219.38 124.60 211.18 133.49 204.70 135.70 C 198.21 137.91 190.12 143.47 184.08 147.08 C 178.03 150.69 168.01 152.99 163.00 158.00 Z"/>
</g>
<g fill="#FFC88A" fill-opacity="0.34" stroke="None">
<path d="
M 163.00 247.00 
C 162.69 247.04 162.05 246.35 162.00 246.00
C 160.68 236.80 162.05 225.18 162.00 216.00 C 161.95 206.82 160.82 194.61 162.00 186.00 C 163.18 177.39 158.14 164.80 163.00 158.00
C 156.07 164.93 163.83 184.98 161.00 194.00 C 158.17 203.02 162.73 205.94 161.00 213.00 C 159.27 220.06 162.77 226.43 161.00 232.00 C 159.23 237.57 163.17 246.63 163.00 247.00 Z"/>
</g>
<g fill="#FFA645" fill-opacity="0.66" stroke="None">
<path d="
M 22.00 230.00 
C 22.42 234.50 25.81 235.18 29.00 237.00
C 26.22 234.72 24.51 231.20 22.00 229.00
C 22.00 229.00 21.95 229.50 22.00 230.00 Z"/>
</g>
<g fill="#FFA746" fill-opacity="0.65" stroke="None">
<path d="
M 162.00 246.00 
C 162.05 246.35 162.69 247.04 163.00 247.00
C 164.87 246.75 166.60 244.80 168.00 244.00
C 167.21 244.27 163.53 244.27 162.00 246.00 Z"/>
</g>
</svg>