<?xml version="1.0" encoding="UTF-8"?>
<!DOCTYPE svg PUBLIC "-//W3C//DTD SVG 1.1//EN" "http://www.w3.org/Graphics/SVG/1.1/DTD/svg11.dtd">
<svg xmlns="http://www.w3.org/2000/svg" version="1.1" width="121px" height="139px" style="shape-rendering:geometricPrecision; text-rendering:geometricPrecision; image-rendering:optimizeQuality; fill-rule:evenodd; clip-rule:evenodd" xmlns:xlink="http://www.w3.org/1999/xlink">
<g><path style="opacity:0.957" fill="#002d73" d="M 57.5,-0.5 C 58.8333,-0.5 60.1667,-0.5 61.5,-0.5C 80.966,11.4038 100.633,23.0705 120.5,34.5C 120.5,57.5 120.5,80.5 120.5,103.5C 100.633,114.93 80.966,126.596 61.5,138.5C 60.5,138.5 59.5,138.5 58.5,138.5C 39.032,126.929 19.3653,115.596 -0.5,104.5C -0.5,80.8333 -0.5,57.1667 -0.5,33.5C 19.1153,22.5301 38.4487,11.1968 57.5,-0.5 Z M 59.5,20.5 C 73.3876,28.362 87.221,36.362 101,44.5C 101.833,60.8435 101.666,77.1769 100.5,93.5C 86.9578,101.437 73.2912,109.103 59.5,116.5C 45.7088,109.103 32.0422,101.437 18.5,93.5C 17.1667,77.1667 17.1667,60.8333 18.5,44.5C 32.206,36.4371 45.8727,28.4371 59.5,20.5 Z"/></g>
<g><path style="opacity:0.918" fill="#002d73" d="M 57.5,36.5 C 59.6547,36.372 61.6547,36.872 63.5,38C 71.6661,42.582 79.6661,47.4153 87.5,52.5C 84.0742,55.4098 80.2409,57.7432 76,59.5C 70.4358,56.6343 64.9358,53.6343 59.5,50.5C 54.2514,53.3738 49.0848,56.3738 44,59.5C 43.1694,65.8595 43.3361,72.1928 44.5,78.5C 49.7486,81.3738 54.9152,84.3738 60,87.5C 64.9086,83.7132 70.2419,80.7132 76,78.5C 80.3903,79.9439 84.2236,82.2773 87.5,85.5C 78.4528,91.049 69.2862,96.3824 60,101.5C 50.1942,96.9323 40.8609,91.599 32,85.5C 31.1675,74.152 31.3342,62.8187 32.5,51.5C 41.0625,46.7256 49.3959,41.7256 57.5,36.5 Z"/></g>
</svg>
