<svg width="60" height="68" viewBox="0 0 60 68" fill="black" xmlns="http://www.w3.org/2000/svg">
<rect width="60" height="68" fill="#0B102C"/>
<path d="M59.3846 16.9988L29.6923 0L0 16.9988V32.2581L6.87042 28.305V20.9311L29.6923 7.86578L52.5141 20.9311V23.8608L59.3846 19.9067V16.9988Z" fill="white"/>
<path d="M52.5141 47.0629L29.6923 60.1283L6.87042 47.0629V40.5608L16.8882 34.7962L25.2005 39.5816L32.7461 35.2429L24.4338 30.4596L16.8882 26.1208L9.34256 30.4596L6.87042 31.8824L0 35.8356V51.0013L29.6923 68L59.3846 51.0013V35.736L52.5141 39.6901V47.0629Z" fill="white"/>
<path d="M52.5141 27.4344L35.8497 37.0248L28.3051 41.3635L35.8497 45.7022L43.3954 41.3635L52.5141 36.1156L59.3846 32.1625V23.4812L52.5141 27.4344Z" fill="#F22F54"/>
</svg>
