<?xml version="1.0" encoding="UTF-8"?>
<svg xmlns="http://www.w3.org/2000/svg" width="100" height="100" viewBox="0 0 100 100" fill="none">
  <mask id="mask0_621_987" style="mask-type:luminance" maskUnits="userSpaceOnUse" x="0" y="0" width="100" height="100">
    <path d="M50 100C77.6142 100 100 77.6142 100 50C100 22.3858 77.6142 0 50 0C22.3858 0 0 22.3858 0 50C0 77.6142 22.3858 100 50 100Z" fill="white"></path>
  </mask>
  <g mask="url(#mask0_621_987)">
    <path d="M100 0.0561523H0V100.056H100V0.0561523Z" fill="url(#paint0_linear_621_987)"></path>
  </g>
  <path d="M35.8181 50.1106C35.8181 44.7157 36.6524 39.3765 38.3765 34.2597C39.6557 31.3676 38.3209 27.9749 35.4288 26.6957C32.5367 25.4165 29.144 26.7513 27.8648 29.6434C27.1974 31.0895 27.1974 32.758 27.8648 34.2597C29.589 39.3209 30.4232 44.6045 30.4232 49.9438C30.4232 55.3387 29.589 60.6779 27.8648 65.7947C26.5856 68.6868 27.9204 72.0795 30.8125 73.3587C33.7046 74.6379 37.0973 73.3031 38.3765 70.411C39.0439 68.9649 39.0439 67.2964 38.3765 65.7947C36.6524 60.7335 35.8181 55.4499 35.8181 50.1106Z" fill="white"></path>
  <path d="M16.1289 44.272C12.9587 44.272 10.3447 46.8304 10.3447 50.0562C10.3447 53.2264 12.9031 55.8404 16.1289 55.8404C19.2991 55.8404 21.9131 53.282 21.9131 50.1118C21.9131 46.8304 19.2991 44.272 16.1289 44.272Z" fill="white"></path>
  <path d="M66.9083 26.1958C63.7381 26.1958 61.1797 28.7542 61.1797 31.9244C61.1797 32.703 61.3465 33.4817 61.6802 34.2047C65.1285 44.4383 65.1285 55.5061 61.6802 65.7397C61.3465 66.4628 61.1797 67.2414 61.1797 68.0201C61.1797 71.1902 63.7381 73.8043 66.9639 73.8043C70.1897 73.8043 72.7481 71.2459 72.7481 68.0201C72.7481 67.2414 72.5812 66.4628 72.2475 65.7397C68.7993 55.5061 68.7993 44.4383 72.2475 34.2047C73.5267 31.3126 72.1919 27.9199 69.2998 26.6407C68.5212 26.3627 67.7425 26.1958 66.9083 26.1958Z" fill="white"></path>
  <path d="M55.229 58.1762C54.8953 57.5088 54.506 56.9526 54.061 56.452C52.6706 54.3942 51.2801 52.2251 51.2801 50.0004C51.2801 47.7757 52.6706 45.6623 54.0054 43.66C54.506 43.1595 54.8953 42.6033 55.1734 41.9359V41.8803C56.4526 38.9882 55.1177 35.5955 52.2256 34.3163C49.3335 33.0371 45.9409 34.3719 44.6617 37.264C43.9943 38.7657 43.9943 40.4342 44.6617 41.8803C44.6617 41.8803 44.6617 41.9359 44.7173 41.9359C44.9954 42.5477 45.3847 43.1039 45.8297 43.6044C47.2201 45.6623 48.6105 47.8313 48.6105 50.1117C48.6105 52.3363 47.2201 54.4498 45.8853 56.452C45.3847 56.9526 44.9954 57.5088 44.7173 58.1762V58.2318C43.4381 61.1239 44.7729 64.5166 47.665 65.7957C50.5571 67.075 53.9498 65.7401 55.229 62.848C55.8408 61.3464 55.8408 59.6222 55.229 58.1762Z" fill="white"></path>
  <path d="M83.8711 44.272C80.7009 44.272 78.0869 46.8304 78.0869 50.0006C78.0869 53.1708 80.6453 55.7848 83.8155 55.7848C86.9857 55.7848 89.5997 53.2264 89.5997 50.0562C89.6553 46.8304 87.0413 44.272 83.8711 44.272Z" fill="white"></path>
  <defs>
    <linearGradient id="paint0_linear_621_987" x1="51.1083" y1="-1.00553" x2="48.8885" y2="101.117" gradientUnits="userSpaceOnUse">
      <stop stop-color="#12C781"></stop>
      <stop offset="0.5" stop-color="#63E9DA"></stop>
      <stop offset="1" stop-color="#09A9CB"></stop>
    </linearGradient>
  </defs>
</svg>
