<svg xmlns="http://www.w3.org/2000/svg" width="100" height="100" fill="none"><mask id="a" style="mask-type:luminance" maskUnits="userSpaceOnUse" x="0" y="0" width="100" height="100"><path d="M50 100c27.614 0 50-22.386 50-50S77.614 0 50 0 0 22.386 0 50s22.386 50 50 50z" fill="#fff"/></mask><g mask="url(#a)"><path d="M100 .056H0v100h100v-100z" fill="url(#b)"/></g><path d="M35.818 50.11c0-5.394.834-10.733 2.559-15.85 1.279-2.892-.056-6.285-2.948-7.564-2.892-1.28-6.285.055-7.564 2.947-.668 1.447-.668 3.115 0 4.617 1.724 5.06 2.558 10.345 2.558 15.684 0 5.395-.834 10.734-2.558 15.85-1.28 2.893.055 6.285 2.948 7.565 2.892 1.279 6.284-.056 7.564-2.948.667-1.446.667-3.115 0-4.616-1.725-5.062-2.559-10.345-2.559-15.684zM16.129 44.272a5.78 5.78 0 0 0-5.784 5.784 5.78 5.78 0 0 0 5.784 5.784c3.17 0 5.784-2.558 5.784-5.728 0-3.282-2.614-5.84-5.784-5.84zM66.908 26.196a5.72 5.72 0 0 0-5.728 5.728c0 .779.166 1.558.5 2.28a49.358 49.358 0 0 1 0 31.536 5.44 5.44 0 0 0-.5 2.28 5.78 5.78 0 0 0 5.784 5.784 5.745 5.745 0 0 0 5.784-5.784c0-.779-.167-1.557-.5-2.28a49.36 49.36 0 0 1 0-31.535c1.279-2.892-.056-6.285-2.948-7.564-.779-.278-1.557-.445-2.392-.445zM55.229 58.176a7.814 7.814 0 0 0-1.168-1.724c-1.39-2.058-2.78-4.227-2.78-6.452 0-2.224 1.39-4.338 2.724-6.34.501-.5.89-1.057 1.168-1.724v-.056c1.28-2.892-.055-6.285-2.947-7.564s-6.285.056-7.564 2.948c-.668 1.502-.668 3.17 0 4.616 0 0 0 .056.055.056a6.72 6.72 0 0 0 1.113 1.668c1.39 2.058 2.78 4.227 2.78 6.508 0 2.224-1.39 4.338-2.725 6.34-.5.5-.89 1.057-1.168 1.724v.056c-1.279 2.892.056 6.285 2.948 7.564s6.285-.056 7.564-2.948c.612-1.502.612-3.226 0-4.672zM83.871 44.272c-3.17 0-5.784 2.558-5.784 5.729 0 3.17 2.558 5.784 5.728 5.784s5.785-2.559 5.785-5.729c.055-3.226-2.559-5.784-5.729-5.784z" fill="#fff"/><defs><linearGradient id="b" x1="51.108" y1="-1.006" x2="48.889" y2="101.117" gradientUnits="userSpaceOnUse"><stop stop-color="#12C781"/><stop offset=".5" stop-color="#63E9DA"/><stop offset="1" stop-color="#09A9CB"/></linearGradient></defs></svg>