<svg xmlns="http://www.w3.org/2000/svg" xmlns:xlink="http://www.w3.org/1999/xlink" version="1.1" id="图层_1" x="0px" y="0px" style="enable-background:new 0 0 1366 768;" xml:space="preserve" viewBox="522.79 208.95 320.54 350.1">
<style type="text/css">
	.st0{fill:#23AF91;}
</style>
<title>未标题-4</title>
<path class="st0" d="M623.7,384l103.7,103.7l65.4-65.4c11.5-11.5,30.2-11.5,41.8,0c11.5,11.5,11.5,30.2,0,41.8l-86.2,86.4  c-11.7,11.4-30.3,11.4-42,0L582,425.8v74c1.4,16.3-10.7,30.7-27,32.1c-16.3,1.4-30.7-10.7-32.1-27c-0.1-1.7-0.1-3.4,0-5.1V268.2  c-1.4-16.3,10.7-30.7,27-32.1c16.3-1.4,30.7,10.7,32.1,27c0.1,1.7,0.1,3.4,0,5.1v74l124.5-124.7c11.7-11.4,30.3-11.4,42,0l86.2,86.4  c11.5,11.5,11.5,30.2,0,41.8s-30.2,11.5-41.8,0l0,0l-65.4-65.4L623.7,384z M727.4,354.3L727.4,354.3c-16.4,0-29.7,13.3-29.7,29.7  s13.3,29.7,29.7,29.7s29.7-13.3,29.7-29.7C757.1,367.6,743.8,354.3,727.4,354.3L727.4,354.3z"/>
</svg>