<svg id="svg" version="1.1" xmlns="http://www.w3.org/2000/svg" xmlns:xlink="http://www.w3.org/1999/xlink" width="400" height="400" viewBox="0, 0, 400,400"><g id="svgg"><path id="path0" d="M249.561 9.453 C 238.489 31.868,238.061 58.064,248.443 77.844 C 251.128 82.960,256.619 89.735,258.080 89.735 C 258.428 89.735,261.000 87.467,262.956 85.437 C 277.886 69.936,287.895 44.366,287.936 21.621 L 287.938 20.231 286.441 19.505 C 278.606 15.706,269.694 12.179,260.650 9.299 C 257.994 8.453,251.342 6.501,251.115 6.501 C 251.062 6.501,250.363 7.829,249.561 9.453 M211.528 41.901 C 210.629 42.449,210.607 42.667,210.607 51.240 L 210.607 59.145 209.515 61.694 C 198.251 87.981,199.363 115.593,212.575 137.725 C 219.611 149.509,230.249 159.252,239.264 162.167 C 241.904 163.021,241.571 163.135,242.507 161.050 C 248.963 146.669,250.646 127.381,247.034 109.153 C 242.893 88.249,232.151 70.980,217.154 61.117 L 215.404 59.966 215.401 51.531 C 215.397 42.279,215.407 42.366,214.377 41.834 C 213.664 41.465,212.185 41.500,211.528 41.901 M305.709 50.216 C 304.974 50.615,304.965 50.718,304.876 59.780 L 304.790 68.491 302.224 69.375 C 281.196 76.619,264.409 95.043,255.786 120.341 C 251.345 133.372,249.691 147.981,251.465 158.512 L 251.754 160.222 254.149 160.197 C 264.473 160.090,279.134 152.198,289.448 141.197 C 306.572 122.931,314.002 97.495,310.092 70.525 C 309.893 69.152,309.837 66.890,309.837 60.212 C 309.837 51.027,309.821 50.838,308.962 50.236 C 308.451 49.878,306.354 49.865,305.709 50.216 M313.860 119.276 C 312.912 120.022,312.917 119.964,312.917 130.335 L 312.917 139.894 311.933 140.112 C 306.300 141.356,297.910 145.195,291.648 149.392 C 268.840 164.678,252.633 195.920,252.613 224.636 C 252.606 234.012,252.561 233.875,255.701 233.875 C 267.739 233.875,284.335 225.319,295.884 213.159 C 309.082 199.264,316.600 182.238,318.769 161.334 C 319.061 158.513,319.065 145.586,318.774 142.857 C 318.633 141.539,318.564 137.613,318.563 130.967 C 318.561 120.324,318.541 120.060,317.689 119.344 C 316.962 118.732,314.605 118.690,313.860 119.276 M184.317 121.478 C 184.019 121.570,183.576 121.881,183.333 122.170 L 182.891 122.695 182.891 132.648 C 182.891 140.118,182.828 143.219,182.641 145.081 C 178.625 185.009,198.210 221.280,230.710 234.101 C 237.011 236.586,246.765 238.244,247.556 236.964 C 248.111 236.066,248.370 225.117,247.933 221.044 C 243.945 183.895,220.159 151.884,190.210 143.362 L 188.205 142.791 188.157 132.773 C 188.105 121.896,188.148 122.378,187.174 121.695 C 186.721 121.378,185.052 121.251,184.317 121.478 M328.007 189.166 C 326.916 189.703,326.946 189.378,326.946 200.472 L 326.946 210.541 324.679 211.111 C 289.057 220.061,260.095 257.992,255.568 301.625 C 255.271 304.487,255.310 314.288,255.628 316.510 L 255.860 318.135 257.314 318.262 C 265.855 319.005,279.051 314.561,290.334 307.142 C 312.722 292.421,327.665 268.001,331.555 239.778 C 332.494 232.965,332.886 222.352,332.412 216.595 C 332.280 214.992,332.154 209.276,332.093 202.139 C 331.997 190.797,331.980 190.314,331.659 189.840 C 331.031 188.913,329.204 188.576,328.007 189.166 M171.274 194.452 C 170.427 195.165,170.429 195.116,170.377 214.029 C 170.319 234.750,170.361 235.577,171.953 244.794 C 177.579 277.373,198.666 304.877,226.775 316.301 C 234.582 319.474,245.608 321.435,249.358 320.318 C 250.916 319.854,250.242 304.919,248.232 295.381 C 239.657 254.682,209.343 220.849,176.176 214.960 L 175.535 214.846 175.535 205.279 C 175.535 194.786,175.536 194.800,174.530 194.280 C 173.653 193.826,171.908 193.919,171.274 194.452 M349.085 263.541 L 348.503 264.123 348.503 274.481 L 348.503 284.838 347.690 284.951 C 309.563 290.250,273.854 326.994,262.181 372.938 C 260.733 378.635,258.887 389.645,259.224 390.575 C 259.329 390.867,267.548 388.033,273.567 385.628 C 298.969 375.482,321.193 360.912,340.804 341.548 L 345.338 337.071 346.328 334.275 C 350.069 323.706,352.320 312.519,353.136 300.428 C 353.362 297.079,353.398 292.620,353.336 275.731 L 353.293 264.123 352.712 263.541 C 352.158 262.988,352.071 262.960,350.898 262.960 C 349.725 262.960,349.639 262.988,349.085 263.541 M154.234 272.866 C 154.046 272.949,153.700 273.224,153.464 273.477 L 153.037 273.937 153.037 292.272 C 153.037 311.371,153.058 312.074,153.817 318.392 C 157.528 349.279,172.861 375.248,197.177 391.830 C 202.709 395.603,210.314 399.632,211.719 399.535 C 223.723 398.706,234.820 397.048,245.680 394.461 L 246.621 394.237 246.573 393.483 C 246.250 388.480,244.342 379.679,242.049 372.626 C 228.664 331.446,194.570 300.412,159.242 297.249 L 157.920 297.131 157.873 285.523 L 157.827 273.916 157.276 273.365 C 156.690 272.779,155.045 272.509,154.234 272.866 " stroke="none" fill="#1c1c1c" fill-rule="evenodd"></path><path id="path1" d="M190.590 0.105 C 190.073 0.138,188.379 0.247,186.826 0.346 C 93.174 6.344,15.680 77.816,2.072 170.744 C -7.585 236.696,16.243 303.370,65.361 347.829 C 102.870 381.779,150.108 400.028,200.086 399.873 C 204.414 399.859,208.557 399.786,209.293 399.710 L 210.630 399.572 207.839 398.169 C 180.599 384.471,161.410 358.726,155.197 327.545 C 153.089 316.968,152.777 311.851,152.907 289.991 L 153.003 273.824 153.559 273.268 C 154.415 272.411,156.463 272.425,157.331 273.293 L 157.913 273.875 157.913 285.441 C 157.913 294.578,157.958 297.006,158.127 297.007 C 162.601 297.021,174.775 300.149,182.121 303.172 C 211.720 315.349,237.059 347.449,244.905 382.708 C 245.913 387.238,246.832 393.317,246.630 394.122 C 246.540 394.480,246.574 394.537,246.828 394.461 C 246.997 394.411,248.251 394.092,249.615 393.752 C 252.239 393.099,255.458 392.217,257.762 391.518 L 259.151 391.096 259.173 390.123 C 259.307 384.338,262.017 371.820,265.017 363.131 C 277.610 326.662,303.592 298.381,333.791 288.274 C 338.248 286.782,346.193 284.859,347.900 284.859 L 348.332 284.859 348.333 274.636 C 348.333 264.685,348.342 264.399,348.678 263.848 C 349.580 262.368,352.400 262.455,353.165 263.986 C 353.515 264.687,353.620 293.821,353.292 299.230 C 352.496 312.352,349.573 326.611,345.666 336.428 C 345.412 337.067,351.173 330.683,354.765 326.346 C 413.998 254.821,415.175 150.998,357.591 77.035 C 339.548 53.861,317.394 35.473,290.975 21.744 L 287.938 20.166 287.938 22.615 C 287.931 45.897,275.977 74.218,260.279 88.143 C 257.914 90.241,258.154 90.165,257.007 89.192 C 250.949 84.055,245.853 74.729,243.138 63.815 C 238.633 45.709,240.957 26.315,249.712 8.953 C 250.506 7.379,250.886 6.455,250.757 6.409 C 245.219 4.430,227.034 1.426,214.457 0.414 C 211.266 0.157,193.372 -0.075,190.590 0.105 M214.446 41.771 C 215.500 42.252,215.475 42.036,215.569 51.432 L 215.654 60.007 217.524 61.257 C 232.190 71.063,242.836 88.105,246.964 108.383 C 250.198 124.267,249.445 141.530,244.928 155.058 C 243.887 158.176,241.959 162.697,241.614 162.830 C 241.197 162.990,237.909 161.831,235.667 160.734 C 224.060 155.053,213.124 142.001,207.020 126.542 C 199.247 106.857,200.065 83.523,209.276 62.170 L 210.522 59.281 210.607 50.927 L 210.693 42.572 211.252 42.073 C 211.871 41.520,213.546 41.361,214.446 41.771 M308.717 50.028 C 309.771 50.469,309.743 50.218,309.848 60.137 C 309.932 68.142,309.986 69.505,310.308 71.771 C 315.315 106.994,299.109 141.117,270.525 155.542 C 262.977 159.351,252.020 161.834,251.594 159.832 C 249.179 148.476,251.421 131.023,257.190 116.253 C 266.343 92.821,282.233 76.213,302.053 69.363 L 304.619 68.476 304.705 59.858 C 304.798 50.495,304.771 50.738,305.785 50.120 C 306.442 49.719,307.871 49.675,308.717 50.028 M317.381 118.999 C 318.603 119.630,318.561 119.237,318.566 130.197 C 318.569 137.455,318.636 140.752,318.821 142.772 C 321.681 173.958,310.386 202.546,288.200 220.274 C 277.594 228.748,265.288 233.895,255.628 233.896 C 252.710 233.897,253.040 234.140,252.763 231.784 C 250.827 215.291,256.292 193.565,266.757 176.155 C 277.968 157.504,294.335 144.460,312.190 139.948 L 312.917 139.764 312.917 130.096 C 312.917 119.427,312.886 119.745,313.995 119.069 C 314.689 118.646,316.620 118.605,317.381 118.999 M187.551 121.946 L 188.109 122.504 188.195 132.612 L 188.281 142.720 190.248 143.285 C 213.920 150.089,233.582 170.842,243.207 199.183 C 247.481 211.768,249.287 225.963,247.860 235.757 L 247.648 237.211 245.509 237.265 C 232.172 237.598,214.183 227.548,201.774 212.831 C 187.082 195.408,179.938 170.705,182.454 146.022 C 182.657 144.034,182.717 141.170,182.718 133.314 C 182.720 122.129,182.704 122.311,183.779 121.637 C 184.738 121.037,186.812 121.207,187.551 121.946 M331.040 189.156 C 332.030 189.741,331.985 189.213,332.092 201.540 C 332.159 209.177,332.267 213.620,332.420 215.056 C 333.661 226.677,331.838 243.617,327.980 256.327 C 319.334 284.810,296.883 308.596,271.343 316.333 C 265.989 317.955,256.729 319.062,255.852 318.185 C 254.705 317.038,255.075 302.658,256.465 294.319 C 263.249 253.631,291.600 219.059,324.789 211.003 L 326.770 210.522 326.772 200.496 L 326.775 190.470 327.165 189.891 C 327.851 188.873,329.902 188.484,331.040 189.156 M174.386 194.115 C 175.491 194.641,175.441 194.169,175.535 204.949 L 175.620 214.774 177.470 215.161 C 204.148 220.752,228.009 242.500,241.267 273.311 C 247.784 288.455,251.115 305.093,250.152 317.696 C 249.916 320.790,250.299 320.531,245.971 320.529 C 229.132 320.523,208.110 309.059,193.588 291.964 C 179.935 275.891,171.971 255.561,170.400 232.763 C 169.966 226.471,170.266 195.696,170.769 194.868 C 171.356 193.902,173.155 193.528,174.386 194.115 " stroke="none" fill="#fbbb44" fill-rule="evenodd"></path><path id="path2" d="M287.807 24.636 C 287.807 24.966,287.842 25.101,287.885 24.936 C 287.928 24.771,287.928 24.502,287.885 24.337 C 287.842 24.172,287.807 24.307,287.807 24.636 M306.886 49.907 C 307.098 49.948,307.444 49.948,307.656 49.907 C 307.868 49.866,307.695 49.833,307.271 49.833 C 306.848 49.833,306.675 49.866,306.886 49.907 M304.784 60.051 C 304.784 64.709,304.806 66.615,304.833 64.286 C 304.860 61.957,304.860 58.146,304.833 55.817 C 304.806 53.488,304.784 55.393,304.784 60.051 M311.095 84.517 C 311.095 85.317,311.124 85.644,311.160 85.244 C 311.196 84.844,311.196 84.189,311.160 83.790 C 311.124 83.390,311.095 83.717,311.095 84.517 M201.754 95.210 C 201.756 95.586,201.791 95.720,201.832 95.507 C 201.873 95.294,201.871 94.986,201.828 94.823 C 201.786 94.659,201.752 94.833,201.754 95.210 M201.754 100.684 C 201.756 101.061,201.791 101.195,201.832 100.982 C 201.873 100.769,201.871 100.461,201.828 100.297 C 201.786 100.134,201.752 100.308,201.754 100.684 M315.273 118.858 C 315.580 118.896,316.042 118.895,316.299 118.856 C 316.556 118.817,316.305 118.786,315.740 118.787 C 315.175 118.788,314.965 118.820,315.273 118.858 M248.799 124.038 C 248.799 124.367,248.835 124.502,248.878 124.337 C 248.921 124.172,248.921 123.903,248.878 123.738 C 248.835 123.574,248.799 123.708,248.799 124.038 M250.708 149.016 C 250.708 150.192,250.735 150.674,250.768 150.086 C 250.802 149.497,250.802 148.535,250.768 147.947 C 250.735 147.359,250.708 147.840,250.708 149.016 M319.145 152.181 C 319.146 153.687,319.172 154.280,319.204 153.499 C 319.235 152.718,319.235 151.487,319.203 150.762 C 319.171 150.037,319.145 150.676,319.145 152.181 M182.083 152.609 C 182.083 153.033,182.116 153.206,182.157 152.994 C 182.197 152.782,182.197 152.436,182.157 152.224 C 182.116 152.012,182.083 152.186,182.083 152.609 M182.083 159.110 C 182.083 159.534,182.116 159.707,182.157 159.495 C 182.197 159.284,182.197 158.937,182.157 158.725 C 182.116 158.514,182.083 158.687,182.083 159.110 M326.855 200.684 C 326.855 206.189,326.877 208.441,326.903 205.689 C 326.930 202.936,326.930 198.432,326.903 195.680 C 326.877 192.928,326.855 195.180,326.855 200.684 M170.271 218.648 C 170.271 218.978,170.306 219.112,170.349 218.948 C 170.392 218.783,170.392 218.514,170.349 218.349 C 170.306 218.184,170.271 218.319,170.271 218.648 M332.659 223.781 C 332.659 225.051,332.686 225.571,332.719 224.936 C 332.752 224.301,332.752 223.261,332.719 222.626 C 332.686 221.991,332.659 222.511,332.659 223.781 M252.411 224.893 C 252.412 225.646,252.442 225.933,252.478 225.530 C 252.514 225.128,252.514 224.512,252.477 224.161 C 252.440 223.811,252.410 224.140,252.411 224.893 M350.513 262.909 C 350.725 262.950,351.071 262.950,351.283 262.909 C 351.495 262.869,351.322 262.835,350.898 262.835 C 350.475 262.835,350.302 262.869,350.513 262.909 M348.412 274.765 C 348.412 280.364,348.434 282.654,348.460 279.855 C 348.487 277.055,348.487 272.474,348.460 269.675 C 348.434 266.876,348.412 269.166,348.412 274.765 M353.374 275.962 C 353.374 282.220,353.396 284.780,353.422 281.651 C 353.448 278.522,353.448 273.402,353.422 270.274 C 353.396 267.145,353.374 269.705,353.374 275.962 M353.340 295.808 C 353.340 296.232,353.373 296.405,353.414 296.193 C 353.455 295.982,353.455 295.635,353.414 295.423 C 353.373 295.212,353.340 295.385,353.340 295.808 M152.849 302.737 C 152.850 304.243,152.876 304.836,152.908 304.055 C 152.939 303.274,152.939 302.043,152.907 301.318 C 152.875 300.593,152.849 301.232,152.849 302.737 M297.936 310.565 L 297.434 311.121 297.990 310.618 C 298.508 310.150,298.624 310.009,298.492 310.009 C 298.463 310.009,298.213 310.259,297.936 310.565 M250.195 313.259 C 250.195 314.530,250.222 315.049,250.255 314.414 C 250.288 313.779,250.288 312.740,250.255 312.104 C 250.222 311.469,250.195 311.989,250.195 313.259 M294.773 313.730 L 294.183 314.371 294.825 313.782 C 295.178 313.457,295.466 313.169,295.466 313.140 C 295.466 313.009,295.321 313.133,294.773 313.730 " stroke="none" fill="#82642c" fill-rule="evenodd"></path><path id="path3" d="" stroke="none" fill="#947434" fill-rule="evenodd"></path><path id="path4" d="M215.477 51.583 C 215.477 56.193,215.499 58.055,215.526 55.720 C 215.553 53.384,215.553 49.612,215.526 47.336 C 215.499 45.061,215.477 46.972,215.477 51.583 M311.088 82.207 C 311.089 82.772,311.121 82.982,311.159 82.674 C 311.197 82.367,311.196 81.905,311.157 81.648 C 311.118 81.391,311.087 81.642,311.088 82.207 M276.726 85.415 L 275.877 86.313 276.775 85.464 C 277.269 84.997,277.673 84.593,277.673 84.566 C 277.673 84.438,277.515 84.580,276.726 85.415 M262.185 86.270 L 260.992 87.511 262.233 86.318 C 263.385 85.210,263.551 85.030,263.426 85.030 C 263.400 85.030,262.841 85.588,262.185 86.270 M311.088 86.826 C 311.089 87.391,311.121 87.601,311.159 87.294 C 311.197 86.986,311.196 86.524,311.157 86.267 C 311.118 86.010,311.087 86.262,311.088 86.826 M182.800 133.020 C 182.801 138.571,182.822 140.818,182.849 138.012 C 182.875 135.206,182.875 130.663,182.848 127.918 C 182.822 125.172,182.800 127.468,182.800 133.020 M288.019 142.729 L 286.826 143.969 288.067 142.776 C 289.219 141.668,289.385 141.488,289.260 141.488 C 289.234 141.488,288.676 142.047,288.019 142.729 M250.685 146.364 C 250.687 146.741,250.722 146.875,250.763 146.662 C 250.803 146.449,250.802 146.141,250.759 145.977 C 250.716 145.814,250.683 145.988,250.685 146.364 M319.123 148.845 C 319.123 149.269,319.156 149.442,319.197 149.230 C 319.238 149.018,319.238 148.672,319.197 148.460 C 319.156 148.249,319.123 148.422,319.123 148.845 M222.923 151.283 C 223.909 152.295,224.736 153.122,224.762 153.122 C 224.885 153.122,224.677 152.903,222.968 151.237 L 221.129 149.444 222.923 151.283 M182.076 151.411 C 182.076 151.741,182.111 151.876,182.154 151.711 C 182.197 151.546,182.197 151.277,182.154 151.112 C 182.111 150.947,182.076 151.082,182.076 151.411 M250.681 151.754 C 250.681 152.083,250.716 152.218,250.760 152.053 C 250.803 151.888,250.803 151.619,250.760 151.454 C 250.716 151.290,250.681 151.424,250.681 151.754 M319.123 155.518 C 319.123 155.941,319.156 156.114,319.197 155.902 C 319.238 155.691,319.238 155.344,319.197 155.133 C 319.156 154.921,319.123 155.094,319.123 155.518 M280.236 158.725 L 278.614 160.393 280.282 158.772 C 281.832 157.265,282.028 157.057,281.904 157.057 C 281.879 157.057,281.128 157.808,280.236 158.725 M220.274 161.506 C 221.400 162.635,222.360 163.559,222.407 163.559 C 222.454 163.559,221.571 162.635,220.445 161.506 C 219.319 160.376,218.359 159.453,218.312 159.453 C 218.265 159.453,219.148 160.376,220.274 161.506 M182.076 160.308 C 182.076 160.637,182.111 160.772,182.154 160.607 C 182.197 160.443,182.197 160.173,182.154 160.009 C 182.111 159.844,182.076 159.979,182.076 160.308 M252.652 160.432 C 252.958 160.470,253.458 160.470,253.764 160.432 C 254.070 160.394,253.820 160.363,253.208 160.363 C 252.596 160.363,252.346 160.394,252.652 160.432 M172.586 193.965 C 172.894 194.003,173.356 194.002,173.613 193.963 C 173.870 193.924,173.618 193.893,173.054 193.894 C 172.489 193.895,172.279 193.927,172.586 193.965 M294.607 214.500 L 293.157 215.997 294.654 214.546 C 295.477 213.748,296.151 213.075,296.151 213.049 C 296.151 212.925,295.954 213.109,294.607 214.500 M206.416 217.964 C 207.259 218.811,207.987 219.504,208.034 219.504 C 208.081 219.504,207.430 218.811,206.587 217.964 C 205.744 217.117,205.016 216.424,204.969 216.424 C 204.922 216.424,205.573 217.117,206.416 217.964 M332.643 220.701 C 332.643 221.219,332.675 221.431,332.715 221.172 C 332.754 220.913,332.754 220.490,332.715 220.231 C 332.675 219.972,332.643 220.184,332.643 220.701 M170.130 224.465 C 170.130 226.018,170.155 226.653,170.187 225.877 C 170.219 225.101,170.219 223.830,170.187 223.054 C 170.155 222.278,170.130 222.913,170.130 224.465 M252.401 222.840 C 252.403 223.311,252.436 223.483,252.475 223.223 C 252.515 222.963,252.513 222.578,252.473 222.367 C 252.432 222.157,252.400 222.370,252.401 222.840 M332.643 226.861 C 332.643 227.378,332.675 227.590,332.715 227.331 C 332.754 227.072,332.754 226.649,332.715 226.390 C 332.675 226.131,332.643 226.343,332.643 226.861 M252.401 226.946 C 252.403 227.417,252.436 227.589,252.475 227.329 C 252.515 227.069,252.513 226.684,252.473 226.473 C 252.432 226.263,252.400 226.476,252.401 226.946 M248.293 228.058 C 248.293 228.482,248.326 228.655,248.367 228.443 C 248.408 228.231,248.408 227.885,248.367 227.673 C 248.326 227.462,248.293 227.635,248.293 228.058 M287.420 232.806 L 286.313 233.961 287.468 232.854 C 288.541 231.825,288.701 231.651,288.575 231.651 C 288.549 231.651,288.029 232.171,287.420 232.806 M217.536 237.810 C 218.379 238.657,219.107 239.350,219.155 239.350 C 219.202 239.350,218.550 238.657,217.707 237.810 C 216.864 236.963,216.136 236.270,216.089 236.270 C 216.042 236.270,216.693 236.963,217.536 237.810 M304.359 295.766 L 302.737 297.434 304.405 295.812 C 305.955 294.305,306.151 294.098,306.027 294.098 C 306.002 294.098,305.251 294.848,304.359 295.766 M198.546 297.348 C 199.861 298.666,200.975 299.743,201.022 299.743 C 201.069 299.743,200.032 298.666,198.717 297.348 C 197.402 296.031,196.288 294.953,196.241 294.953 C 196.194 294.953,197.231 296.031,198.546 297.348 M353.333 297.006 C 353.333 297.335,353.368 297.470,353.411 297.305 C 353.454 297.141,353.454 296.871,353.411 296.707 C 353.368 296.542,353.333 296.677,353.333 297.006 M152.831 299.230 C 152.831 299.748,152.863 299.959,152.903 299.701 C 152.942 299.442,152.942 299.018,152.903 298.760 C 152.863 298.501,152.831 298.713,152.831 299.230 M152.831 306.245 C 152.831 306.762,152.863 306.974,152.903 306.715 C 152.942 306.456,152.942 306.033,152.903 305.774 C 152.863 305.515,152.831 305.727,152.831 306.245 M255.151 308.982 C 255.151 309.876,255.180 310.242,255.216 309.795 C 255.251 309.348,255.251 308.616,255.216 308.169 C 255.180 307.722,255.151 308.088,255.151 308.982 M299.134 309.367 L 298.631 309.923 299.187 309.421 C 299.706 308.952,299.822 308.811,299.690 308.811 C 299.660 308.811,299.410 309.061,299.134 309.367 M250.171 310.436 C 250.173 310.813,250.208 310.946,250.249 310.734 C 250.290 310.521,250.289 310.213,250.246 310.049 C 250.203 309.886,250.170 310.060,250.171 310.436 M293.575 314.927 L 292.985 315.569 293.627 314.979 C 293.980 314.655,294.269 314.366,294.269 314.338 C 294.269 314.207,294.124 314.330,293.575 314.927 M250.168 316.168 C 250.168 316.497,250.203 316.632,250.246 316.467 C 250.289 316.302,250.289 316.033,250.246 315.868 C 250.203 315.704,250.168 315.838,250.168 316.168 M212.482 323.909 C 213.191 324.665,213.345 324.801,213.345 324.672 C 213.345 324.645,212.979 324.279,212.532 323.859 L 211.719 323.097 212.482 323.909 M215.227 326.829 C 215.227 326.858,215.477 327.108,215.783 327.385 L 216.339 327.887 215.836 327.331 C 215.368 326.813,215.227 326.696,215.227 326.829 " stroke="none" fill="#aa8136" fill-rule="evenodd"></path></g></svg>