<?xml version="1.0" encoding="UTF-8"?>
<!DOCTYPE svg PUBLIC "-//W3C//DTD SVG 1.1//EN" "http://www.w3.org/Graphics/SVG/1.1/DTD/svg11.dtd">
<svg xmlns="http://www.w3.org/2000/svg" version="1.1" width="1708px" height="1708px" style="shape-rendering:geometricPrecision; text-rendering:geometricPrecision; image-rendering:optimizeQuality; fill-rule:evenodd; clip-rule:evenodd" xmlns:xlink="http://www.w3.org/1999/xlink">
<g><path style="opacity:0.998" fill="#0f4ef6" d="M 581.5,-0.5 C 766.833,-0.5 952.167,-0.5 1137.5,-0.5C 1137.5,184.5 1137.5,369.5 1137.5,554.5C 1137.5,555.167 1137.17,555.5 1136.5,555.5C 951.833,555.5 767.167,555.5 582.5,555.5C 582.5,740.5 582.5,925.5 582.5,1110.5C 581.833,1110.5 581.5,1110.83 581.5,1111.5C 396.167,1111.5 210.833,1111.5 25.5,1111.5C 25.5,925.833 25.5,740.167 25.5,554.5C 210.833,554.5 396.167,554.5 581.5,554.5C 581.5,369.5 581.5,184.5 581.5,-0.5 Z"/></g>
<g><path style="opacity:0.998" fill="#00d4e2" d="M 1137.5,554.5 C 1322.83,554.5 1508.17,554.5 1693.5,554.5C 1690.15,830.468 1599.99,1073.14 1423,1282.5C 1236.74,1493.58 1003.24,1618.75 722.5,1658C 675.686,1663.95 628.686,1666.78 581.5,1666.5C 581.5,1481.5 581.5,1296.5 581.5,1111.5C 581.5,1110.83 581.833,1110.5 582.5,1110.5C 742.515,1107.22 877.682,1048.22 988,933.5C 1085.01,826.704 1134.51,700.704 1136.5,555.5C 1137.17,555.5 1137.5,555.167 1137.5,554.5 Z"/></g>
</svg>
