<svg width="48" height="48" viewBox="0 0 48 48" fill="none" xmlns="http://www.w3.org/2000/svg"><path d="M24.096 47.414c12.932 0 23.415-10.483 23.415-23.414C47.51 11.07 37.028.586 24.096.586 11.166.586.682 11.069.682 24c0 12.931 10.483 23.414 23.415 23.414Z" fill="#fff"/><path d="M29.972 37.498v-10.81h-11.75v10.81h-5.367V10.503h5.366v10.81h11.75v-10.81h5.367v26.995h-5.366Z" fill="#4D2176"/><path d="M24 0c13.255 0 24 10.745 24 24S37.255 48 24 48 0 37.255 0 24 10.745 0 24 0Z" fill="url(#a)"/><path d="M22.339 24.021a1.32 1.32 0 0 1-.234-.02c.337-.713.662-1.406.973-2.08.31-.688.583-1.316.817-1.887.233-.57.421-1.076.564-1.517.142-.44.214-.784.214-1.03 0-.247-.04-.448-.117-.603a.946.946 0 0 0-.272-.37.748.748 0 0 0-.35-.175 1.186 1.186 0 0 0-.331-.058c-.337 0-.72.194-1.148.583-.414.376-.862.882-1.341 1.517a30.735 30.735 0 0 0-1.46 2.198 88.274 88.274 0 0 0-1.477 2.547L12.44 33.628a3.931 3.931 0 0 0-.331.876 3.759 3.759 0 0 0-.117.914c0 .207.026.428.078.661.065.233.169.447.311.642.143.194.344.356.603.486.26.13.597.194 1.011.194.506 0 .973-.181 1.4-.544.428-.363.83-.836 1.207-1.42.375-.596.72-1.264 1.03-2.003.311-.752.61-1.51.895-2.275.285-.765.551-1.505.797-2.218a23.57 23.57 0 0 1 .72-1.886 36.401 36.401 0 0 0 1.42 3.85c.531 1.206 1.121 2.263 1.77 3.17.648.908 1.367 1.628 2.158 2.16a4.548 4.548 0 0 0 2.587.797c1.14 0 2.347-.285 3.617-.856 1.284-.583 2.593-1.504 3.929-2.762.453-.427.771-.836.953-1.225.194-.402.291-.752.291-1.05 0-.311-.09-.558-.272-.739a.9.9 0 0 0-.661-.272c-.415 0-.823.227-1.225.68a7.23 7.23 0 0 1-1.517 1.498c-.493.376-1.109.72-1.848 1.03-.739.312-1.582.467-2.528.467h-.272a2.34 2.34 0 0 1-.292-.019c-.519-.039-1.012-.298-1.478-.778a8.704 8.704 0 0 1-1.284-1.73c-.376-.688-.7-1.407-.972-2.16a15.741 15.741 0 0 1-.564-2.061c.83-.143 1.685-.376 2.567-.7.895-.324 1.763-.72 2.606-1.187a16.479 16.479 0 0 0 2.373-1.594c.752-.61 1.406-1.27 1.964-1.984a9.604 9.604 0 0 0 1.322-2.314 6.86 6.86 0 0 0 .506-2.607c0-1.348-.279-2.528-.836-3.539a7.24 7.24 0 0 0-2.217-2.509c-.934-.674-2.01-1.18-3.229-1.517A14.021 14.021 0 0 0 25.12 8.6a16.6 16.6 0 0 0-3.831.427 17.215 17.215 0 0 0-3.346 1.109 14.48 14.48 0 0 0-2.742 1.595 12.84 12.84 0 0 0-2.08 1.867c-.558.648-.993 1.296-1.304 1.944-.298.649-.447 1.252-.447 1.81 0 .596.162 1.062.486 1.4.324.324.81.486 1.459.486.48 0 .881-.11 1.206-.33.324-.221.615-.506.875-.857.272-.35.531-.752.778-1.205.246-.454.518-.921.817-1.4.31-.48.674-.947 1.089-1.401a6.716 6.716 0 0 1 1.555-1.206c.623-.35 1.355-.635 2.198-.855.856-.22 1.874-.331 3.054-.331 1.05 0 1.95.123 2.703.37.765.246 1.387.576 1.867.991.492.415.85.901 1.07 1.459a4.54 4.54 0 0 1 .35 1.77c0 .868-.22 1.763-.662 2.683a8.745 8.745 0 0 1-1.77 2.51 9.742 9.742 0 0 1-2.644 1.866 7.27 7.27 0 0 1-3.19.72h-.272Z" fill="#fff"/><defs><linearGradient id="a" x1="83.138" y1="33.264" x2="83.138" y2="-55.77" gradientUnits="userSpaceOnUse"><stop stop-color="#9E00F6"/><stop offset="1" stop-color="#FA7564"/></linearGradient></defs></svg>