<svg xmlns="http://www.w3.org/2000/svg" viewBox="0 0 40 40"><linearGradient id="a" gradientUnits="userSpaceOnUse" x1="348.692" y1="-1690.178" x2="385.984" y2="-1690.178" gradientTransform="rotate(90 -661.43 -1008.748)"><stop offset=".001" stop-color="#a90fe3"/><stop offset="1" stop-color="#cf3fa7"/></linearGradient><path d="M37 26.3V13.7c0-2.1-1.1-4.1-3-5.2L23 2.2c-1.8-1.1-4.2-1.1-6 0L6 8.5c-1.9 1.1-3 3.1-3 5.2v12.6c0 2.1 1.1 4.1 3 5.2l11 6.3c1.8 1.1 4.2 1.1 6 0l11-6.3c1.8-1.1 3-3.1 3-5.2z" fill="url(#a)"/><path d="M18.9 20.2v-.1l.3-.6c.1-.2.2-.3.2-.5s.2-.4.2-.5c.1-.2.2-.5.3-.7 0-.1.1-.1.1-.2.1-.1.1-.3.2-.4.1-.1.1-.3.2-.4 0-.1.1-.2.1-.3 0-.1.1-.2.1-.3.1-.2.1-.4.1-.5v-.2c0-.2-.2-.4-.4-.5-.2-.1-.4-.1-.6 0-.2.1-.3.2-.5.3l-.9.9-.3.3c-.3.5-.7 1-1 1.5-.1.2-.2.3-.3.5-.1.2-.2.4-.3.5-.1.2-.3.4-.4.7 0 0 0 .2-.1.3-.1.1-.1.3-.2.4-.2.3-.3.6-.5.9-.1.3-.3.5-.4.8-.1.3-.3.5-.4.8-.1.1-.1.3-.2.4-.1.1-.1.3-.2.4-.2.3-.3.6-.5.9-.1.3-.3.5-.4.8-.2.3-.3.6-.5.9-.1.3-.3.5-.4.8-.1.2-.2.4-.3.7 0 .2-.1.3-.1.5v.6c0 .1.1.2.1.3 0 .1.1.2.2.3l.2.2c.2.1.4.2.7.2h.4c.1 0 .2 0 .3-.1.2-.1.5-.2.6-.4l.3-.3.3-.3c.2-.3.4-.6.5-.9.1-.3.3-.5.4-.8.1-.3.2-.6.4-.9.1-.2.1-.4.2-.6.1-.2.1-.3.2-.5s.1-.4.2-.6c0-.2.1-.3.2-.5.1-.3.2-.5.3-.8.1-.2.2-.4.2-.6 0-.1.1-.1.1-.2v.1l.3.9c.1.3.2.5.3.7.1.1.1.3.2.4.1.3.3.6.4.9.1.3.3.6.5.9.1.2.2.3.3.5.1.2.2.4.4.5.1.2.3.4.4.5l.5.5.4.4.6.3c.2.1.4.2.6.2.2.1.4.1.5.1h.4c.1 0 .2-.1.3 0 .2 0 .3-.1.5 0 0-.1.1 0 .1 0h.1c.1 0 .3-.1.4-.1.1 0 .2-.1.3-.1.1-.1.2 0 .3-.1.1 0 .2-.1.3-.1.1 0 .2-.1.3-.1.1 0 .2-.1.3-.1.2-.1.4-.2.5-.3.2-.1.3-.2.5-.3.1-.1.3-.2.4-.3.2-.2.4-.3.6-.5l.6-.6c.1-.1.2-.3.3-.5 0-.1.1-.2.1-.3.1-.1 0-.2.1-.4 0-.2 0-.4-.1-.5l-.3-.3h-.1c-.1-.1-.2 0-.3 0-.2.1-.4.2-.6.4l-.1.1c0 .1-.1.1-.1.1-.3.3-.6.5-.9.8-.2.2-.4.3-.7.4-.3.2-.6.3-.9.4-.1.1-.3.1-.4.1h-1.7l-.6-.3-.4-.4-.1-.1c0-.1-.1-.1-.1-.2-.1-.1-.2-.3-.3-.4-.1-.1-.2-.3-.3-.4-.2-.3-.3-.6-.4-.9-.1-.2-.1-.3-.2-.5s-.1-.3-.2-.5c-.1-.3-.1-.5-.2-.8v-.2h.3c.1 0 .2 0 .3-.1.1 0 .2-.1.3-.1.1 0 .2-.1.3-.1.2-.1.4-.1.6-.2.3-.1.6-.2.9-.4.4-.2.8-.4 1.1-.6.1-.1.3-.2.5-.3.2-.2.5-.3.7-.5.3-.2.6-.4.8-.7.1-.1.3-.2.4-.4l.4-.4c.1-.2.2-.3.3-.5.2-.2.3-.5.4-.7.2-.3.3-.6.4-.8 0-.1.1-.2.1-.3.1-.2.1-.4.1-.6.1-.1 0-.2 0-.2v-.2-.4-.4c0-.1 0-.3-.1-.4 0-.2-.1-.4-.1-.6-.1-.2-.1-.4-.2-.6l-.3-.6c-.1-.1-.1-.2-.2-.3-.1-.1-.2-.3-.3-.4-.3-.3-.6-.6-.9-.8-.2-.1-.4-.3-.7-.4-.4-.2-.7-.4-1.1-.5-.2-.1-.5-.2-.7-.2-.1 0-.2 0-.4-.1-.2 0-.3-.1-.5-.1s-.3-.1-.5-.1h-2.7c-.1.1-.1 0-.2 0h-.5c-.1 0-.2 0-.3.1-.1 0-.2.1-.3.1-.1 0-.3.1-.4.1-.2 0-.3.1-.5.2-.4.2-.6.2-.9.4-.2.1-.5.2-.7.3l-1.2.6c-.1.1-.2.1-.3.2-.2.2-.4.3-.6.5-.2.1-.3.3-.5.4-.3.2-.5.5-.8.8-.1.1-.2.2-.2.3-.1.1-.2.3-.3.4-.1.2-.2.3-.3.5 0 .1-.1.2-.1.3 0 .1-.1.2-.1.4-.1.1 0 .1-.1.2v.8c.1.3.3.5.5.7.3.1.5.1.8.2h.1c.2 0 .4-.1.6-.2.2-.1.4-.2.5-.4.1-.1.2-.3.4-.5s.3-.5.5-.7c.1-.1.1-.2.2-.4s.2-.3.3-.5c.1-.1.2-.2.2-.4.1-.1.2-.3.3-.4.1-.1.1-.2.2-.2.1-.1.1-.2.2-.3.1-.1.2-.2.4-.3.2-.2.5-.3.7-.5.3-.1.6-.3.9-.4.3-.1.5-.2.8-.2h3c.2 0 .4.1.6.1.2.1.5.1.7.3.3.1.6.3.8.5.3.2.5.5.7.8.2.3.3.7.4 1.1 0 .4 0 .9-.1 1.3 0 .1-.1.2-.1.4-.1.3-.2.6-.3.8-.1.3-.3.6-.5.8-.2.3-.4.5-.6.7l-.4.4c-.1.1-.3.2-.4.3-.2.2-.5.4-.8.5-.4.2-.8.4-1.3.5-.1 0-.3.1-.4.1-.1 0-.3.1-.4.1-.3.2-.6.1-.9.1z" fill="#fff"/></svg>