<svg width="48" height="48" viewBox="0 0 48 48" fill="none" xmlns="http://www.w3.org/2000/svg">
<path d="M24.0965 47.4145C37.0279 47.4145 47.5109 36.9315 47.5109 24.0001C47.5109 11.0687 37.0279 0.585758 24.0965 0.585758C11.1652 0.585758 0.682205 11.0687 0.682205 24.0001C0.682205 36.9315 11.1652 47.4145 24.0965 47.4145Z" fill="white"/>
<path d="M29.9719 37.4979V26.6883H18.2215V37.4979H12.8551V10.5027H18.2215V21.3123H29.9719V10.5027H35.3383V37.4979H29.9719Z" fill="#4D2176"/>
<path d="M24 0C37.2548 0 48 10.7452 48 24C48 37.2548 37.2548 48 24 48C10.7452 48 0 37.2548 0 24C0 10.7452 10.7452 0 24 0Z" fill="url(#paint0_linear)"/>
<path d="M22.3387 24.021C22.2609 24.021 22.1832 24.0145 22.1053 24.0016C22.4424 23.2885 22.7666 22.5949 23.0777 21.9206C23.3889 21.2333 23.6612 20.6045 23.8946 20.0341C24.128 19.4636 24.3161 18.9579 24.4586 18.5171C24.6013 18.0763 24.6726 17.7327 24.6726 17.4864C24.6726 17.24 24.6336 17.0391 24.5559 16.8835C24.478 16.7149 24.3873 16.5917 24.2836 16.514C24.1798 16.4232 24.0632 16.3649 23.9336 16.3389C23.8038 16.3 23.6937 16.2806 23.6029 16.2806C23.2658 16.2806 22.8833 16.4751 22.4553 16.864C22.0405 17.24 21.5932 17.7457 21.1136 18.381C20.6467 19.0163 20.1606 19.7488 19.6549 20.5787C19.1622 21.3954 18.6694 22.2446 18.1768 23.1264L12.4396 33.6284C12.2969 33.9007 12.1867 34.1924 12.1089 34.5037C12.0311 34.8147 11.9923 35.1195 11.9923 35.4177C11.9923 35.6252 12.0182 35.8456 12.07 36.079C12.1349 36.3123 12.2386 36.5263 12.3812 36.7207C12.5238 36.9153 12.7248 37.0772 12.9841 37.207C13.2434 37.3366 13.5805 37.4014 13.9954 37.4014C14.5011 37.4014 14.9678 37.2199 15.3957 36.8568C15.8235 36.4938 16.2255 36.0206 16.6015 35.4371C16.9775 34.8408 17.3211 34.173 17.6322 33.434C17.9434 32.6819 18.2416 31.9235 18.5269 31.1586C18.8121 30.3936 19.078 29.6545 19.3243 28.9414C19.5705 28.2153 19.8105 27.5865 20.0439 27.055C20.4587 28.4034 20.9321 29.6869 21.4636 30.9057C21.9951 32.1114 22.5851 33.1681 23.2333 34.0757C23.8817 34.9833 24.6013 35.7029 25.3922 36.2344C26.1831 36.7661 27.0452 37.032 27.9787 37.032C29.1198 37.032 30.3255 36.7467 31.5962 36.1761C32.8796 35.5927 34.1893 34.6722 35.5246 33.4144C35.9784 32.9867 36.2961 32.5783 36.4776 32.1893C36.6722 31.7874 36.7693 31.4372 36.7693 31.139C36.7693 30.828 36.6787 30.5815 36.4972 30.4C36.3155 30.2185 36.0951 30.1277 35.8359 30.1277C35.4209 30.1277 35.0125 30.3546 34.6106 30.8084C34.1827 31.3789 33.677 31.878 33.0936 32.306C32.6009 32.6819 31.9852 33.0256 31.246 33.3367C30.507 33.648 29.6642 33.8034 28.7179 33.8034H28.4456C28.3547 33.8034 28.2574 33.7969 28.1539 33.784C27.6351 33.7451 27.1425 33.4859 26.6756 33.0061C26.2089 32.5264 25.7812 31.9493 25.3922 31.2751C25.0161 30.588 24.692 29.8685 24.4196 29.1164C24.1604 28.3515 23.9723 27.6644 23.8556 27.055C24.6855 26.9123 25.5412 26.6789 26.4229 26.3547C27.3176 26.0307 28.1862 25.6353 29.0289 25.1684C29.8717 24.7017 30.6626 24.1702 31.4016 23.5737C32.1536 22.9643 32.8084 22.3032 33.3659 21.59C33.9235 20.8639 34.3643 20.0924 34.6883 19.2757C35.0254 18.4458 35.194 17.5771 35.194 16.6695C35.194 15.3211 34.9152 14.1413 34.3579 13.13C33.8132 12.1186 33.0742 11.2824 32.1406 10.6211C31.2072 9.94691 30.1311 9.44126 28.9123 9.10416C27.7065 8.76705 26.4423 8.5985 25.1199 8.5985C23.7715 8.5985 22.4943 8.74113 21.2886 9.02636C20.0827 9.29863 18.9678 9.66816 17.9434 10.1349C16.9321 10.5887 16.0181 11.1203 15.2012 11.7297C14.3844 12.3261 13.6907 12.9484 13.1203 13.5967C12.5627 14.245 12.1284 14.8933 11.8172 15.5415C11.519 16.1898 11.3699 16.7927 11.3699 17.3502C11.3699 17.9467 11.532 18.4134 11.8561 18.7504C12.1803 19.0746 12.6665 19.2367 13.3147 19.2367C13.7945 19.2367 14.1964 19.1265 14.5205 18.9061C14.8447 18.6856 15.1364 18.4005 15.3957 18.0504C15.668 17.7003 15.9273 17.2984 16.1736 16.8446C16.42 16.3908 16.6922 15.924 16.9905 15.4443C17.3016 14.9646 17.6646 14.4978 18.0796 14.044C18.5073 13.5902 19.0261 13.1883 19.6353 12.8382C20.2577 12.4882 20.9902 12.2029 21.833 11.9825C22.6889 11.7621 23.7067 11.6519 24.8865 11.6519C25.9366 11.6519 26.8377 11.7751 27.5899 12.0214C28.3547 12.2677 28.9771 12.5984 29.4569 13.0133C29.9494 13.4282 30.3061 13.9144 30.5265 14.4719C30.7599 15.0294 30.8766 15.6193 30.8766 16.2417C30.8766 17.1104 30.6561 18.005 30.2153 18.9254C29.7875 19.8461 29.1975 20.6824 28.4456 21.4344C27.6934 22.1863 26.8119 22.8086 25.8006 23.3014C24.8022 23.7812 23.739 24.021 22.611 24.021H22.3387Z" fill="white"/>
<defs>
<linearGradient id="paint0_linear" x1="83.1378" y1="33.2643" x2="83.1378" y2="-55.7697" gradientUnits="userSpaceOnUse">
<stop stop-color="#9E00F6"/>
<stop offset="1" stop-color="#FA7564"/>
</linearGradient>
</defs>
</svg>
