<?xml version="1.0" standalone="yes"?>
<svg xmlns="http://www.w3.org/2000/svg" width="200" height="200">
<path style="fill:#ffffff; stroke:none;" d="M0 0L0 104L1 104C4.16326 83.7319 24.4384 84.6828 40 86.1698C79.3105 89.9259 118.68 93.0859 158 96.8302C174.223 98.3752 193.491 97.9198 199 117L200 117L200 0L0 0z"/>
<path style="fill:#07dfa3; stroke:none;" d="M54 24.6096C34.0163 29.7623 29.5272 62.8478 47.0039 73.5208C55.6963 78.8294 69.053 78.555 79 79.0386C97.3616 79.9312 115.626 83.1454 134 84.0386C141.585 84.4073 149.538 86.6663 157 84.1535C173.059 78.7459 175.973 56.1021 160.91 47.6343C152.986 43.1799 142.743 42.1886 134 40.1157C117.67 36.2443 101.374 32.2455 85 28.5764C75.4324 26.4324 63.8126 22.0794 54 24.6096z"/>
<path style="fill:#37e6b4; stroke:none;" d="M66 24L67 25L66 24M51 25L52 26L51 25M70 25L71 26L70 25M75 26L76 27L75 26M80 27L81 28L80 27z"/>
<path style="fill:#a0f3dc; stroke:none;" d="M84 28L85 29L84 28M44 29L45 30L44 29M89 29L90 30L89 29z"/>
<path style="fill:#37e6b4; stroke:none;" d="M92 30L93 31L92 30z"/>
<path style="fill:#64ebc5; stroke:none;" d="M97 31L98 32L97 31z"/>
<path style="fill:#a0f3dc; stroke:none;" d="M102 32L103 33L102 32z"/>
<path style="fill:#37e6b4; stroke:none;" d="M110 34L111 35L110 34z"/>
<path style="fill:#a0f3dc; stroke:none;" d="M114 35L115 36L114 35M39 36L40 37L39 36z"/>
<path style="fill:#37e6b4; stroke:none;" d="M123 37L124 38L123 37M38 39L39 40L38 39M59.6667 39.3333L60.3333 39.6667L59.6667 39.3333M131 39L132 40L131 39z"/>
<path style="fill:#ffffff; stroke:none;" d="M56.2778 41.0278C50.3798 44.7209 50.2664 58.0575 57.1049 60.6559C63.6127 63.1285 72.1098 62.4282 79 63.1659C95.9645 64.9821 112.995 66.5476 130 67.9144C135.403 68.3486 149.162 71.8853 153.377 67.3974C159.675 60.6931 139.316 57.4123 136 56.6512C116.649 52.2103 97.3448 47.5732 78 43.1188C72.3826 41.8254 61.6418 37.6691 56.2778 41.0278z"/>
<path style="fill:#a0f3dc; stroke:none;" d="M65 40L66 41L65 40z"/>
<path style="fill:#64ebc5; stroke:none;" d="M135 40L136 41L135 40z"/>
<path style="fill:#a0f3dc; stroke:none;" d="M70 41L71 42L70 41M140 41L141 42L140 41M75 42L76 43L75 42z"/>
<path style="fill:#64ebc5; stroke:none;" d="M144 42L145 43L144 42z"/>
<path style="fill:#37e6b4; stroke:none;" d="M79 43L80 44L79 43z"/>
<path style="fill:#a0f3dc; stroke:none;" d="M148 43L149 44L148 43M53 44L54 45L53 44z"/>
<path style="fill:#37e6b4; stroke:none;" d="M152 44L153 45L152 44z"/>
<path style="fill:#64ebc5; stroke:none;" d="M87 45L88 46L87 45M92 46L93 47L92 46z"/>
<path style="fill:#37e6b4; stroke:none;" d="M158 46L159 47L158 46z"/>
<path style="fill:#64ebc5; stroke:none;" d="M52 47L53 48L52 47z"/>
<path style="fill:#37e6b4; stroke:none;" d="M97 47L98 48L97 47z"/>
<path style="fill:#a0f3dc; stroke:none;" d="M36 48L37 49L36 48M100 48L101 49L100 48z"/>
<path style="fill:#37e6b4; stroke:none;" d="M36 49L37 50L36 49z"/>
<path style="fill:#a0f3dc; stroke:none;" d="M105 49L106 50L105 49z"/>
<path style="fill:#64ebc5; stroke:none;" d="M164 50L165 51L164 50z"/>
<path style="fill:#a0f3dc; stroke:none;" d="M113 51L114 52L113 51M118 52L119 53L118 52M126 54L127 55L126 54z"/>
<path style="fill:#37e6b4; stroke:none;" d="M36 55L37 56L36 55z"/>
<path style="fill:#64ebc5; stroke:none;" d="M130 55L131 56L130 55z"/>
<path style="fill:#a0f3dc; stroke:none;" d="M36 56L37 57L36 56M52 56L53 57L52 56z"/>
<path style="fill:#37e6b4; stroke:none;" d="M135 56L136 57L135 56z"/>
<path style="fill:#a0f3dc; stroke:none;" d="M139 57L140 58L139 57M53 58L54 59L53 58z"/>
<path style="fill:#37e6b4; stroke:none;" d="M143 58L144 59L143 58z"/>
<path style="fill:#a0f3dc; stroke:none;" d="M147 59L148 60L147 59z"/>
<path style="fill:#64ebc5; stroke:none;" d="M170 59L171 60L170 59z"/>
<path style="fill:#37e6b4; stroke:none;" d="M55 60L56 61L55 60M37 61L38 62L37 61M59 61L60 62L59 61z"/>
<path style="fill:#a0f3dc; stroke:none;" d="M60 61L61 62L60 61z"/>
<path style="fill:#64ebc5; stroke:none;" d="M71 62L72 63L71 62z"/>
<path style="fill:#a0f3dc; stroke:none;" d="M72 62L73 63L72 62z"/>
<path style="fill:#37e6b4; stroke:none;" d="M154 62L155 63L154 62M79 63L80 64L79 63z"/>
<path style="fill:#64ebc5; stroke:none;" d="M80 63L81 64L80 63z"/>
<path style="fill:#a0f3dc; stroke:none;" d="M81 63L82 64L81 63z"/>
<path style="fill:#64ebc5; stroke:none;" d="M92 64L93 65L92 64z"/>
<path style="fill:#a0f3dc; stroke:none;" d="M93 64L94 65L93 64z"/>
<path style="fill:#64ebc5; stroke:none;" d="M101 65L102 66L101 65z"/>
<path style="fill:#a0f3dc; stroke:none;" d="M102 65L103 66L102 65z"/>
<path style="fill:#37e6b4; stroke:none;" d="M113 66L114 67L113 66z"/>
<path style="fill:#a0f3dc; stroke:none;" d="M114 66L115 67L114 66M40 67L41 68L40 67z"/>
<path style="fill:#37e6b4; stroke:none;" d="M125 67L126 68L125 67z"/>
<path style="fill:#64ebc5; stroke:none;" d="M126 67L127 68L126 67M135 68L136 69L135 68z"/>
<path style="fill:#a0f3dc; stroke:none;" d="M136 68L137 69L136 68z"/>
<path style="fill:#64ebc5; stroke:none;" d="M153 68L154 69L153 68z"/>
<path style="fill:#37e6b4; stroke:none;" d="M147 69L148 70L147 69z"/>
<path style="fill:#64ebc5; stroke:none;" d="M148 69L149 70L148 69z"/>
<path style="fill:#a0f3dc; stroke:none;" d="M149.667 69.3333L150.333 69.6667L149.667 69.3333z"/>
<path style="fill:#64ebc5; stroke:none;" d="M170 69L171 70L170 69z"/>
<path style="fill:#37e6b4; stroke:none;" d="M45 72L46 73L45 72z"/>
<path style="fill:#a0f3dc; stroke:none;" d="M169 72L170 73L169 72M46 73L47 74L46 73M48 74L49 75L48 74z"/>
<path style="fill:#64ebc5; stroke:none;" d="M50 75L51 76L50 75z"/>
<path style="fill:#a0f3dc; stroke:none;" d="M61 77L62 78L61 77z"/>
<path style="fill:#37e6b4; stroke:none;" d="M62 77L63 78L62 77M166 77L167 78L166 77z"/>
<path style="fill:#a0f3dc; stroke:none;" d="M70 78L71 79L70 78z"/>
<path style="fill:#37e6b4; stroke:none;" d="M71 78L72 79L71 78z"/>
<path style="fill:#a0f3dc; stroke:none;" d="M82 79L83 80L82 79z"/>
<path style="fill:#37e6b4; stroke:none;" d="M83 79L84 80L83 79z"/>
<path style="fill:#a0f3dc; stroke:none;" d="M91 80L92 81L91 80z"/>
<path style="fill:#37e6b4; stroke:none;" d="M92 80L93 81L92 80z"/>
<path style="fill:#a0f3dc; stroke:none;" d="M103 81L104 82L103 81z"/>
<path style="fill:#64ebc5; stroke:none;" d="M104 81L105 82L104 81z"/>
<path style="fill:#a0f3dc; stroke:none;" d="M115 82L116 83L115 82z"/>
<path style="fill:#64ebc5; stroke:none;" d="M116 82L117 83L116 82z"/>
<path style="fill:#37e6b4; stroke:none;" d="M160 82L161 83L160 82z"/>
<path style="fill:#a0f3dc; stroke:none;" d="M124.667 83.3333L125.333 83.6667L124.667 83.3333z"/>
<path style="fill:#37e6b4; stroke:none;" d="M126 83L127 84L126 83z"/>
<path style="fill:#a0f3dc; stroke:none;" d="M137 84L138 85L137 84z"/>
<path style="fill:#64ebc5; stroke:none;" d="M138 84L139 85L138 84z"/>
<path style="fill:#a0f3dc; stroke:none;" d="M17 85L18 86L17 85z"/>
<path style="fill:#37e6b4; stroke:none;" d="M18 85L19 86L18 85z"/>
<path style="fill:#07dfa3; stroke:none;" d="M19 85.4645C4.18856 88.1483 -4.55652 105.307 2.45293 119C10.381 134.488 32.083 148.305 45 159.834C66.3992 178.934 93.0613 174 120 174C131.458 174 144.775 175.863 156 173.482C161.017 172.418 165.879 170.28 169.999 167.236C186.209 155.262 216.263 117.179 187.961 101.981C175.214 95.137 157.954 97.3619 144 95.7145C118.072 92.6535 91.973 91.3036 66 88.8302C51.4229 87.4421 33.4651 82.8435 19 85.4645z"/>
<path style="fill:#37e6b4; stroke:none;" d="M28 85L29 86L28 85z"/>
<path style="fill:#a0f3dc; stroke:none;" d="M29.6667 85.3333L30.3333 85.6667L29.6667 85.3333z"/>
<path style="fill:#64ebc5; stroke:none;" d="M147 85L148 86L147 85z"/>
<path style="fill:#37e6b4; stroke:none;" d="M148 85L149 86L148 85M150 85L151 86L150 85z"/>
<path style="fill:#64ebc5; stroke:none;" d="M151 85L152 86L151 85z"/>
<path style="fill:#a0f3dc; stroke:none;" d="M152 85L153 86L152 85z"/>
<path style="fill:#37e6b4; stroke:none;" d="M14 86L15 87L14 86z"/>
<path style="fill:#64ebc5; stroke:none;" d="M41 86L42 87L41 86z"/>
<path style="fill:#a0f3dc; stroke:none;" d="M42 86L43 87L42 86z"/>
<path style="fill:#64ebc5; stroke:none;" d="M54 87L55 88L54 87z"/>
<path style="fill:#a0f3dc; stroke:none;" d="M55 87L56 88L55 87z"/>
<path style="fill:#37e6b4; stroke:none;" d="M63 88L64 89L63 88z"/>
<path style="fill:#a0f3dc; stroke:none;" d="M64 88L65 89L64 88z"/>
<path style="fill:#64ebc5; stroke:none;" d="M76 89L77 90L76 89z"/>
<path style="fill:#a0f3dc; stroke:none;" d="M77 89L78 90L77 89z"/>
<path style="fill:#37e6b4; stroke:none;" d="M85 90L86 91L85 90z"/>
<path style="fill:#a0f3dc; stroke:none;" d="M86 90L87 91L86 90z"/>
<path style="fill:#64ebc5; stroke:none;" d="M98 91L99 92L98 91z"/>
<path style="fill:#a0f3dc; stroke:none;" d="M99 91L100 92L99 91z"/>
<path style="fill:#37e6b4; stroke:none;" d="M110 92L111 93L110 92z"/>
<path style="fill:#a0f3dc; stroke:none;" d="M111 92L112 93L111 92z"/>
<path style="fill:#64ebc5; stroke:none;" d="M120 93L121 94L120 93z"/>
<path style="fill:#a0f3dc; stroke:none;" d="M121 93L122 94L121 93z"/>
<path style="fill:#37e6b4; stroke:none;" d="M132 94L133 95L132 94z"/>
<path style="fill:#64ebc5; stroke:none;" d="M133 94L134 95L133 94M142 95L143 96L142 95z"/>
<path style="fill:#a0f3dc; stroke:none;" d="M143 95L144 96L143 95z"/>
<path style="fill:#37e6b4; stroke:none;" d="M154 96L155 97L154 96z"/>
<path style="fill:#64ebc5; stroke:none;" d="M155 96L156 97L155 96z"/>
<path style="fill:#37e6b4; stroke:none;" d="M2 97L3 98L2 97z"/>
<path style="fill:#64ebc5; stroke:none;" d="M167 97L168 98L167 97z"/>
<path style="fill:#a0f3dc; stroke:none;" d="M168 97L169 98L168 97z"/>
<path style="fill:#64ebc5; stroke:none;" d="M176 98L177 99L176 98z"/>
<path style="fill:#37e6b4; stroke:none;" d="M1 100L2 101L1 100z"/>
<path style="fill:#64ebc5; stroke:none;" d="M184 100L185 101L184 100M19 101L20 102L19 101z"/>
<path style="fill:#ffffff; stroke:none;" d="M20.1335 101.742C13.1074 104.831 17.1431 112.961 21.044 116.576C33.3015 127.934 45.5724 139.298 58.1698 150.285C75.0911 165.043 110.608 158 132 158C139.901 158 150.762 159.925 157.961 156.16C167.182 151.339 176.089 137.728 181.438 129C183.899 124.984 184.906 120.05 180.772 116.703C172.961 110.379 154.631 112.851 145 111.715C115.102 108.187 84.9608 106.693 55 103.83C45.6891 102.941 28.8639 97.9049 20.1335 101.742z"/>
<path style="fill:#a0f3dc; stroke:none;" d="M30 101L31 102L30 101z"/>
<path style="fill:#64ebc5; stroke:none;" d="M31 101L32 102L31 101z"/>
<path style="fill:#a0f3dc; stroke:none;" d="M42.6667 102.333L43.3333 102.667L42.6667 102.333z"/>
<path style="fill:#37e6b4; stroke:none;" d="M44 102L45 103L44 102z"/>
<path style="fill:#a0f3dc; stroke:none;" d="M52 103L53 104L52 103z"/>
<path style="fill:#64ebc5; stroke:none;" d="M53 103L54 104L53 103z"/>
<path style="fill:#a0f3dc; stroke:none;" d="M190 103L191 104L190 103z"/>
<path style="fill:#64ebc5; stroke:none;" d="M0 104L1 105L0 104z"/>
<path style="fill:#a0f3dc; stroke:none;" d="M64.6667 104.333L65.3333 104.667L64.6667 104.333z"/>
<path style="fill:#37e6b4; stroke:none;" d="M66 104L67 105L66 104z"/>
<path style="fill:#a0f3dc; stroke:none;" d="M16 105L17 106L16 105M74 105L75 106L74 105z"/>
<path style="fill:#64ebc5; stroke:none;" d="M75 105L76 106L75 105z"/>
<path style="fill:#37e6b4; stroke:none;" d="M192 105L193 106L192 105z"/>
<path style="fill:#64ebc5; stroke:none;" d="M87 106L88 107L87 106z"/>
<path style="fill:#37e6b4; stroke:none;" d="M88 106L89 107L88 106z"/>
<path style="fill:#a0f3dc; stroke:none;" d="M99 107L100 108L99 107z"/>
<path style="fill:#64ebc5; stroke:none;" d="M100 107L101 108L100 107z"/>
<path style="fill:#a0f3dc; stroke:none;" d="M109 108L110 109L109 108z"/>
<path style="fill:#37e6b4; stroke:none;" d="M110 108L111 109L110 108z"/>
<path style="fill:#64ebc5; stroke:none;" d="M195 108L196 109L195 108z"/>
<path style="fill:#a0f3dc; stroke:none;" d="M121 109L122 110L121 109z"/>
<path style="fill:#64ebc5; stroke:none;" d="M122 109L123 110L122 109z"/>
<path style="fill:#37e6b4; stroke:none;" d="M123 109L124 110L123 109z"/>
<path style="fill:#a0f3dc; stroke:none;" d="M131 110L132 111L131 110z"/>
<path style="fill:#37e6b4; stroke:none;" d="M132 110L133 111L132 110z"/>
<path style="fill:#a0f3dc; stroke:none;" d="M16 111L17 112L16 111M143 111L144 112L143 111z"/>
<path style="fill:#64ebc5; stroke:none;" d="M144 111L145 112L144 111z"/>
<path style="fill:#37e6b4; stroke:none;" d="M145 111L146 112L145 111M0 112L1 113L0 112z"/>
<path style="fill:#a0f3dc; stroke:none;" d="M156 112L157 113L156 112z"/>
<path style="fill:#37e6b4; stroke:none;" d="M157 112L158 113L157 112z"/>
<path style="fill:#a0f3dc; stroke:none;" d="M0 113L1 114L0 113M165 113L166 114L165 113z"/>
<path style="fill:#64ebc5; stroke:none;" d="M166 113L167 114L166 113z"/>
<path style="fill:#ffffff; stroke:none;" d="M0 114L0 200L200 200L200 127L199 127C197.269 135.075 191.702 141.731 186.576 148C180.474 155.462 174.499 164.701 166 169.637C149.673 179.119 122.316 174 104 174C90.1131 174 72.8696 176.805 60 170.672C51.0116 166.389 43.2901 157.851 36.0394 151.17C23.141 139.285 9.83425 128.532 0 114z"/>
<path style="fill:#a0f3dc; stroke:none;" d="M176 114L177 115L176 114M22 117L23 118L22 117M199 117L200 118L199 117z"/>
<path style="fill:#64ebc5; stroke:none;" d="M23 118L24 119L23 118z"/>
<path style="fill:#37e6b4; stroke:none;" d="M199 118L200 119L199 118M24 119L25 120L24 119z"/>
<path style="fill:#a0f3dc; stroke:none;" d="M183 119L184 120L183 119M7 125L8 126L7 125z"/>
<path style="fill:#37e6b4; stroke:none;" d="M183 125L184 126L183 125z"/>
<path style="fill:#a0f3dc; stroke:none;" d="M199 126L200 127L199 126M33 127L34 128L33 127z"/>
<path style="fill:#64ebc5; stroke:none;" d="M35 129L36 130L35 129z"/>
<path style="fill:#37e6b4; stroke:none;" d="M180 130L181 131L180 130z"/>
<path style="fill:#64ebc5; stroke:none;" d="M198 130L199 131L198 130z"/>
<path style="fill:#a0f3dc; stroke:none;" d="M37 131L38 132L37 131z"/>
<path style="fill:#37e6b4; stroke:none;" d="M179 131L180 132L179 131z"/>
<path style="fill:#a0f3dc; stroke:none;" d="M15 132L16 133L15 132z"/>
<path style="fill:#37e6b4; stroke:none;" d="M16 133L17 134L16 133M39 133L40 134L39 133z"/>
<path style="fill:#64ebc5; stroke:none;" d="M17 134L18 135L17 134M196 134L197 135L196 134z"/>
<path style="fill:#a0f3dc; stroke:none;" d="M18 135L19 136L18 135M176 135L177 136L176 135M19 136L20 137L19 136M195 136L196 137L195 136z"/>
<path style="fill:#37e6b4; stroke:none;" d="M194 137L195 138L194 137z"/>
<path style="fill:#a0f3dc; stroke:none;" d="M46 139L47 140L46 139z"/>
<path style="fill:#37e6b4; stroke:none;" d="M173 139L174 140L173 139z"/>
<path style="fill:#a0f3dc; stroke:none;" d="M172 140L173 141L172 140z"/>
<path style="fill:#64ebc5; stroke:none;" d="M192 140L193 141L192 140z"/>
<path style="fill:#37e6b4; stroke:none;" d="M48 141L49 142L48 141z"/>
<path style="fill:#a0f3dc; stroke:none;" d="M190 143L191 144L190 143z"/>
<path style="fill:#64ebc5; stroke:none;" d="M28 144L29 145L28 144z"/>
<path style="fill:#a0f3dc; stroke:none;" d="M189 144L190 145L189 144M55 147L56 148L55 147M32 148L33 149L32 148z"/>
<path style="fill:#64ebc5; stroke:none;" d="M186 148L187 149L186 148z"/>
<path style="fill:#a0f3dc; stroke:none;" d="M57 149L58 150L57 149z"/>
<path style="fill:#37e6b4; stroke:none;" d="M58 150L59 151L58 150M164 150L165 151L164 150z"/>
<path style="fill:#a0f3dc; stroke:none;" d="M163 151L164 152L163 151z"/>
<path style="fill:#37e6b4; stroke:none;" d="M162 152L163 153L162 152M39 154L40 155L39 154z"/>
<path style="fill:#a0f3dc; stroke:none;" d="M63 154L64 155L63 154z"/>
<path style="fill:#37e6b4; stroke:none;" d="M181 154L182 155L181 154M40 155L41 156L40 155z"/>
<path style="fill:#a0f3dc; stroke:none;" d="M64 155L65 156L64 155z"/>
<path style="fill:#37e6b4; stroke:none;" d="M159 155L160 156L159 155z"/>
<path style="fill:#a0f3dc; stroke:none;" d="M41 156L42 157L41 156M66 156L67 157L66 156M157 156L158 157L157 156z"/>
<path style="fill:#64ebc5; stroke:none;" d="M69 157L70 158L69 157z"/>
<path style="fill:#37e6b4; stroke:none;" d="M155 157L156 158L155 157z"/>
<path style="fill:#a0f3dc; stroke:none;" d="M178 158L179 159L178 158M48 162L49 163L48 162z"/>
<path style="fill:#37e6b4; stroke:none;" d="M49 163L50 164L49 163z"/>
<path style="fill:#a0f3dc; stroke:none;" d="M169 167L170 168L169 167M55 168L56 169L55 168M168 168L169 169L168 168z"/>
<path style="fill:#37e6b4; stroke:none;" d="M166 169L167 170L166 169M61 171L62 172L61 171M162 171L163 172L162 171z"/>
<path style="fill:#64ebc5; stroke:none;" d="M64 172L65 173L64 172z"/>
<path style="fill:#37e6b4; stroke:none;" d="M159 172L160 173L159 172z"/>
<path style="fill:#64ebc5; stroke:none;" d="M68 173L69 174L68 173z"/>
<path style="fill:#a0f3dc; stroke:none;" d="M156 173L157 174L156 173z"/>
</svg>
